<svg width="154" height="117" viewBox="0 0 154 117" fill="none" xmlns="http://www.w3.org/2000/svg">
<defs>
<linearGradient id="paint0_linear_41_94" x1="53.6869" y1="110.554" x2="53.6869" y2="23.5824" gradientUnits="userSpaceOnUse">
<stop stop-color="#808080" stop-opacity="0.25"/>
<stop offset="0.54" stop-color="#808080" stop-opacity="0.12"/>
<stop offset="1" stop-color="#808080" stop-opacity="0.1"/>
</linearGradient>
</defs>
<path d="M93.7621 67.0857L95.413 72.8025L97.0639 78.5193H93.7621H90.4603L92.1112 72.8025L93.7621 67.0857Z" fill="#3AD29F" fill-opacity="0.21"/>
<path d="M97.0129 66.3113L98.6622 72.0281L100.313 77.7466H97.0129H93.7112L95.362 72.0281L97.0129 66.3113Z" fill="#3AD29F" fill-opacity="0.21"/>
<path d="M100.262 66.3113L101.913 72.0281L103.564 77.7466H100.262H96.9603L98.6112 72.0281L100.262 66.3113Z" fill="#3AD29F" fill-opacity="0.21"/>
<path d="M125.363 69.8019L127.013 75.5187L128.664 81.2371H125.363H122.061L123.712 75.5187L125.363 69.8019Z" fill="#3AD29F" fill-opacity="0.21"/>
<path d="M19.7729 64.1772L22.5995 69.4139L25.4261 74.6506L22.2015 75.351L18.9754 76.053L19.3733 70.1143L19.7729 64.1772Z" fill="#3AD29F" fill-opacity="0.21"/>
<path d="M0 116.258L6.2484 86.8274L10.8525 80.7439L15.4566 72.8518L24.007 67.7549L30.4198 64.1377L33.0507 72.0298L38.1054 75.4135L41.2723 80.0862L46.2052 78.442L52.4536 73.3451L57.2222 72.0298L63.9639 67.7549L70.2122 69.3991L76.6251 67.0972L80.9003 64.1377L85.0111 69.0702L87.3131 75.4825L87.8064 77.7844H93.726H100.303L104.414 73.3451L110.827 72.0298H117.075L121.35 73.3451L128.914 75.4825L145.686 116.258H0Z" fill="#E0E0E0" fill-opacity="0.3"/>
<g opacity="0.3">
<path opacity="0.3" d="M46.8498 29.3946H26.4208C25.0532 29.3946 23.9445 30.5032 23.9445 31.8707C23.9445 33.2382 25.0532 34.3468 26.4208 34.3468H46.8498C48.2175 34.3468 49.3262 33.2382 49.3262 31.8707C49.3262 30.5032 48.2175 29.3946 46.8498 29.3946Z" fill="#E0E0E0" fill-opacity="0.3"/>
<path opacity="0.3" d="M40.659 34.3468H20.23C18.8624 34.3468 17.7537 35.4554 17.7537 36.823C17.7537 38.1905 18.8624 39.2991 20.23 39.2991H40.659C42.0266 39.2991 43.1353 38.1905 43.1353 36.823C43.1353 35.4554 42.0266 34.3468 40.659 34.3468Z" fill="#E0E0E0" fill-opacity="0.3"/>
<path opacity="0.3" d="M46.8498 39.2991H26.4208C25.0532 39.2991 23.9445 40.4077 23.9445 41.7752C23.9445 43.1428 25.0532 44.2514 26.4208 44.2514H46.8498C48.2175 44.2514 49.3262 43.1428 49.3262 41.7752C49.3262 40.4077 48.2175 39.2991 46.8498 39.2991Z" fill="#E0E0E0" fill-opacity="0.3"/>
</g>
<g opacity="0.5">
<path opacity="0.5" d="M70.2122 110.554H37.1615L39.0969 23.5824H68.2769L70.2122 110.554Z" fill="url(#paint0_linear_41_94)"/>
</g>
<path d="M69.5677 110.554H37.8406L39.6971 23.5824H67.7096L69.5677 110.554Z" fill="white"/>
<g opacity="0.05">
<path opacity="0.05" d="M45.4242 110.554H37.8406L39.6971 23.5824H43.5661L45.4242 110.554Z" fill="black"/>
</g>
<path d="M33.0425 77.7466H74.5203C74.5203 79.3063 73.9007 80.8023 72.7976 81.9052C71.6946 83.0081 70.1986 83.6278 68.6386 83.6278H38.9242C37.3643 83.6278 35.8683 83.0081 34.7652 81.9052C33.6622 80.8023 33.0425 79.3063 33.0425 77.7466Z" fill="#6066D0" fill-opacity="0.19"/>
<path d="M33.0425 48.5032H74.5203C74.5203 50.063 73.9007 51.5589 72.7976 52.6619C71.6946 53.7648 70.1986 54.3844 68.6386 54.3844H38.9242C37.3643 54.3844 35.8683 53.7648 34.7652 52.6619C33.6622 51.5589 33.0425 50.063 33.0425 48.5032Z" fill="#6066D0" fill-opacity="0.19"/>
<path d="M53.7806 43.6233C57.9689 43.6233 61.3642 40.2283 61.3642 36.0404C61.3642 31.8524 57.9689 28.4574 53.7806 28.4574C49.5923 28.4574 46.197 31.8524 46.197 36.0404C46.197 40.2283 49.5923 43.6233 53.7806 43.6233Z" fill="#FFFFA5"/>
<path opacity="0.1" d="M68.9478 83.6261H38.4589V84.0898H68.9478V83.6261Z" fill="black"/>
<path opacity="0.1" d="M68.3295 54.3779H38.9242V54.687H68.3295V54.3779Z" fill="black"/>
<path d="M62.1387 110.554H52.3879V97.1676C52.3879 95.8746 52.9015 94.6347 53.8158 93.7204C54.7302 92.8062 55.9702 92.2926 57.2633 92.2926C58.5562 92.293 59.796 92.8068 60.7102 93.7209C61.6244 94.6351 62.1382 95.8748 62.1387 97.1676V110.554Z" fill="#E0E0E0" fill-opacity="0.3"/>
<path d="M145.247 116.279H0.075635C0.075635 116.279 9.44823 94.7408 23.6551 90.9296C25.703 90.3686 27.8414 90.2172 29.9479 90.484C33.3747 90.9197 36.4742 92.7168 38.6759 95.3787C43.3326 101.008 57.5938 113.276 86.1276 99.2573C86.1276 99.2573 96.3421 89.0437 112.747 101.114C113.764 101.619 114.807 102.069 115.872 102.462C120.905 104.364 130.973 107.015 138.131 101.423C148.034 93.6852 145.247 116.279 145.247 116.279Z" fill="#4D8AF0" fill-opacity="0.22"/>
<g opacity="0.3">
<path opacity="0.3" d="M114.596 6.54054H94.1666C92.799 6.54054 91.6903 7.64914 91.6903 9.01667C91.6903 10.3842 92.799 11.4928 94.1666 11.4928H114.596C115.963 11.4928 117.072 10.3842 117.072 9.01667C117.072 7.64914 115.963 6.54054 114.596 6.54054Z" fill="#E0E0E0" fill-opacity="0.3"/>
<path opacity="0.3" d="M108.405 11.4928H87.9758C86.6081 11.4928 85.4994 12.6014 85.4994 13.9689C85.4994 15.3365 86.6081 16.4451 87.9758 16.4451H108.405C109.772 16.4451 110.881 15.3365 110.881 13.9689C110.881 12.6014 109.772 11.4928 108.405 11.4928Z" fill="#E0E0E0" fill-opacity="0.3"/>
<path opacity="0.3" d="M114.596 16.4451H94.1666C92.799 16.4451 91.6903 17.5537 91.6903 18.9212C91.6903 20.2887 92.799 21.3973 94.1666 21.3973H114.596C115.963 21.3973 117.072 20.2887 117.072 18.9212C117.072 17.5537 115.963 16.4451 114.596 16.4451Z" fill="#E0E0E0" fill-opacity="0.3"/>
</g>
<g opacity="0.3">
<path opacity="0.3" d="M135.643 41.0683H115.214C113.846 41.0683 112.738 42.1769 112.738 43.5444C112.738 44.9119 113.846 46.0205 115.214 46.0205H135.643C137.01 46.0205 138.119 44.9119 138.119 43.5444C138.119 42.1769 137.01 41.0683 135.643 41.0683Z" fill="#E0E0E0" fill-opacity="0.3"/>
<path opacity="0.3" d="M129.452 46.0205H109.023C107.655 46.0205 106.547 47.1291 106.547 48.4966C106.547 49.8642 107.655 50.9728 109.023 50.9728H129.452C130.82 50.9728 131.928 49.8642 131.928 48.4966C131.928 47.1291 130.82 46.0205 129.452 46.0205Z" fill="#E0E0E0" fill-opacity="0.3"/>
<path opacity="0.3" d="M135.643 50.9728H115.214C113.846 50.9728 112.738 52.0814 112.738 53.4489C112.738 54.8164 113.846 55.925 115.214 55.925H135.643C137.01 55.925 138.119 54.8164 138.119 53.4489C138.119 52.0814 137.01 50.9728 135.643 50.9728Z" fill="#E0E0E0" fill-opacity="0.3"/>
</g>
<g opacity="0.3">
<path opacity="0.3" d="M104.389 42.6171H109.806C109.806 42.6171 107.765 46.2277 104.389 42.6171Z" fill="#030B44" fill-opacity="0.21"/>
<path opacity="0.3" d="M104.717 44.1527L108.268 40.0637C108.268 40.0637 109.656 43.9719 104.717 44.1527Z" fill="#030B44" fill-opacity="0.21"/>
</g>
<g opacity="0.3">
<path opacity="0.3" d="M85.044 53.9142H90.4603C90.4603 53.9142 88.4197 57.5248 85.044 53.9142Z" fill="#030B44" fill-opacity="0.21"/>
<path opacity="0.3" d="M85.3712 55.4499L88.9213 51.3608C88.9213 51.3608 90.3107 55.269 85.3712 55.4499Z" fill="#030B44" fill-opacity="0.21"/>
</g>
<g opacity="0.3">
<path opacity="0.3" d="M78.0375 11.5109H83.8469C83.8469 11.5109 81.6583 15.3911 78.0375 11.5109Z" fill="#030B44" fill-opacity="0.21"/>
<path opacity="0.3" d="M78.3878 13.16L82.1976 8.77168C82.1976 8.77168 83.6874 12.9643 78.3878 13.16Z" fill="#030B44" fill-opacity="0.21"/>
</g>
<g opacity="0.05">
<path opacity="0.05" d="M38.1054 83.6031C38.2698 83.6179 38.4424 83.6261 38.6135 83.6261H44.533L44.408 77.7466H38.2353L38.1054 83.6031Z" fill="black"/>
</g>
<g opacity="0.05">
<path opacity="0.05" d="M44.0989 48.4983H39.1659L39.0393 54.3779H44.2239L44.0989 48.4983Z" fill="black"/>
</g>
<path d="M153.753 75.6601C153.819 75.6601 153.881 75.6341 153.928 75.5878C153.974 75.5416 154 75.4789 154 75.4135C154 75.348 153.974 75.2853 153.928 75.2391C153.881 75.1928 153.819 75.1668 153.753 75.1668C153.688 75.1668 153.625 75.1928 153.579 75.2391C153.533 75.2853 153.507 75.348 153.507 75.4135C153.507 75.4789 153.533 75.5416 153.579 75.5878C153.625 75.6341 153.688 75.6601 153.753 75.6601Z" fill="#4D8AF0" fill-opacity="0.22"/>
<path d="M74.5976 17.4628C74.5976 23.2487 65.2431 27.9379 53.7033 27.9379C42.1635 27.9379 32.809 23.2487 32.809 17.4628C32.809 11.6769 42.1635 0 53.7033 0C65.2431 0 74.5976 11.6786 74.5976 17.4628Z" fill="#6066D0" fill-opacity="0.19"/>
<g opacity="0.05">
<path opacity="0.05" d="M32.6873 17.4628C32.6873 23.2487 42.0418 27.9379 53.5816 27.9379V0C42.0418 0 32.6873 11.6786 32.6873 17.4628Z" fill="black"/>
</g>
</svg>