<svg width="143" height="94" viewBox="0 0 143 94" fill="none" xmlns="http://www.w3.org/2000/svg">
<defs>

<linearGradient id="paint0_linear_87_139" x1="10.0174" y1="25.3426" x2="10.0174" y2="25.3154" gradientUnits="userSpaceOnUse">
<stop stop-color="#808080" stop-opacity="0.25"/>
<stop offset="0.54" stop-color="#808080" stop-opacity="0.12"/>
<stop offset="1" stop-color="#808080" stop-opacity="0.1"/>
</linearGradient>
<clipPath id="clip0_87_139">
<rect width="135" height="86" fill="white" transform="translate(4)"/>
</clipPath>
</defs>
<g clip-path="url(#clip0_87_139)" filter="url(#filter0_d_87_139)">
<path d="M128.488 84.178H126.594L125.693 69.3938H128.488V84.178Z" fill="#A0616A"/>
<path d="M125.242 83.6345H128.893V85.944H122.943C122.943 85.6407 123.002 85.3403 123.118 85.0601C123.234 84.7799 123.403 84.5254 123.616 84.3109C123.83 84.0964 124.083 83.9263 124.362 83.8103C124.641 83.6942 124.94 83.6345 125.242 83.6345Z" fill="#2F2E41"/>
<path d="M137.933 82.1782L136.194 82.9292L128.728 69.0038L131.295 67.8954L137.933 82.1782Z" fill="#A0616A"/>
<path d="M134.738 82.9663L138.092 81.518L139 83.6398L133.533 86C133.414 85.7214 133.351 85.4218 133.347 85.1186C133.343 84.8153 133.398 84.5143 133.51 84.2326C133.622 83.9509 133.788 83.694 133.998 83.4768C134.209 83.2595 134.46 83.086 134.738 82.9663Z" fill="#2F2E41"/>
<path d="M110.359 19.5633H77.5567C77.2975 19.563 77.0491 19.4594 76.8658 19.2753C76.6825 19.0912 76.5794 18.8415 76.5791 18.5812V0.982095C76.5794 0.721719 76.6825 0.472093 76.8658 0.287979C77.0491 0.103865 77.2975 0.000300245 77.5567 0H110.359C110.618 0.000300246 110.867 0.103865 111.05 0.287979C111.233 0.472093 111.337 0.721719 111.337 0.982095V18.5812C111.337 18.8415 111.233 19.0912 111.05 19.2753C110.867 19.4594 110.618 19.563 110.359 19.5633Z" fill="#E6E6E6"/>
<path d="M83.1592 12.3154C85.1513 12.3154 86.7661 10.6932 86.7661 8.69208C86.7661 6.69096 85.1513 5.06873 83.1592 5.06873C81.1672 5.06873 79.5524 6.69096 79.5524 8.69208C79.5524 10.6932 81.1672 12.3154 83.1592 12.3154Z" fill="white"/>
<path d="M106.385 5.44768H91.6582C91.512 5.44768 91.3717 5.38931 91.2683 5.28541C91.1649 5.18152 91.1068 5.0406 91.1068 4.89367C91.1068 4.74674 91.1649 4.60582 91.2683 4.50193C91.3717 4.39803 91.512 4.33966 91.6582 4.33966H106.385C106.531 4.33966 106.671 4.39803 106.775 4.50193C106.878 4.60582 106.936 4.74674 106.936 4.89367C106.936 5.0406 106.878 5.18152 106.775 5.28541C106.671 5.38931 106.531 5.44768 106.385 5.44768Z" fill="white"/>
<path d="M98.6754 7.9803H91.6582C91.512 7.9803 91.3717 7.92193 91.2683 7.81803C91.1649 7.71414 91.1068 7.57322 91.1068 7.42629C91.1068 7.27936 91.1649 7.13844 91.2683 7.03455C91.3717 6.93065 91.512 6.87228 91.6582 6.87228H98.6754C98.8216 6.87228 98.9619 6.93065 99.0653 7.03455C99.1688 7.13844 99.2269 7.27936 99.2269 7.42629C99.2269 7.57322 99.1688 7.71414 99.0653 7.81803C98.9619 7.92193 98.8216 7.9803 98.6754 7.9803Z" fill="white"/>
<path d="M103.618 10.5118H91.6582C91.512 10.5118 91.3717 10.4535 91.2683 10.3496C91.1649 10.2457 91.1068 10.1047 91.1068 9.95781C91.1068 9.81088 91.1649 9.66997 91.2683 9.56607C91.3717 9.46218 91.512 9.40381 91.6582 9.40381H103.618C103.764 9.40381 103.904 9.46218 104.008 9.56607C104.111 9.66997 104.169 9.81088 104.169 9.95781C104.169 10.1047 104.111 10.2457 104.008 10.3496C103.904 10.4535 103.764 10.5118 103.618 10.5118Z" fill="white"/>
<path d="M106.385 13.0433H91.6582C91.512 13.0433 91.3717 12.9849 91.2683 12.8811C91.1649 12.7772 91.1068 12.6362 91.1068 12.4893C91.1068 12.3424 91.1649 12.2015 91.2683 12.0976C91.3717 11.9937 91.512 11.9353 91.6582 11.9353H106.385C106.531 11.9353 106.671 11.9937 106.775 12.0976C106.878 12.2015 106.936 12.3424 106.936 12.4893C106.936 12.6362 106.878 12.7772 106.775 12.8811C106.671 12.9849 106.531 13.0433 106.385 13.0433Z" fill="white"/>
<path d="M105.924 17.6233H103.485C103.352 17.6235 103.22 17.5974 103.097 17.5464C102.974 17.4954 102.862 17.4205 102.768 17.326C102.674 17.2315 102.599 17.1193 102.548 16.9957C102.497 16.8722 102.471 16.7398 102.471 16.606C102.471 16.4723 102.497 16.3398 102.548 16.2163C102.599 16.0928 102.674 15.9805 102.768 15.8861C102.862 15.7916 102.974 15.7167 103.097 15.6657C103.22 15.6146 103.352 15.5885 103.485 15.5887H105.924C106.192 15.5887 106.45 15.6959 106.64 15.8867C106.83 16.0775 106.936 16.3362 106.936 16.606C106.936 16.8758 106.83 17.1346 106.64 17.3254C106.45 17.5161 106.192 17.6233 105.924 17.6233Z" fill="white"/>
<path d="M61.5712 21.2024H38.6678C38.4868 21.2022 38.3133 21.1298 38.1853 21.0013C38.0574 20.8727 37.9854 20.6984 37.9852 20.5166V8.22854C37.9854 8.04674 38.0574 7.87244 38.1853 7.74389C38.3133 7.61534 38.4868 7.54303 38.6678 7.54282H61.5712C61.7522 7.54303 61.9257 7.61534 62.0537 7.74389C62.1817 7.87244 62.2537 8.04674 62.2539 8.22854V20.5166C62.2537 20.6984 62.1817 20.8727 62.0537 21.0013C61.9257 21.1298 61.7522 21.2022 61.5712 21.2024Z" fill="#F2F2F2"/>
<path d="M42.5795 16.1417C43.9703 16.1417 45.0979 15.0091 45.0979 13.6118C45.0979 12.2146 43.9703 11.0819 42.5795 11.0819C41.1886 11.0819 40.061 12.2146 40.061 13.6118C40.061 15.0091 41.1886 16.1417 42.5795 16.1417Z" fill="white"/>
<path d="M58.7963 11.3465H48.5138C48.4117 11.3465 48.3137 11.3057 48.2415 11.2332C48.1693 11.1606 48.1287 11.0623 48.1287 10.9597C48.1287 10.8571 48.1693 10.7587 48.2415 10.6861C48.3137 10.6136 48.4117 10.5728 48.5138 10.5728H58.7963C58.8984 10.5728 58.9963 10.6136 59.0685 10.6861C59.1408 10.7587 59.1813 10.8571 59.1813 10.9597C59.1813 11.0623 59.1408 11.1606 59.0685 11.2332C58.9963 11.3057 58.8984 11.3465 58.7963 11.3465Z" fill="white"/>
<path d="M53.4133 13.1149H48.5138C48.4118 13.1147 48.314 13.0738 48.242 13.0013C48.1699 12.9288 48.1295 12.8305 48.1295 12.728C48.1295 12.6256 48.1699 12.5273 48.242 12.4548C48.314 12.3823 48.4118 12.3414 48.5138 12.3412H53.4133C53.5153 12.3414 53.613 12.3823 53.6851 12.4548C53.7571 12.5273 53.7976 12.6256 53.7976 12.728C53.7976 12.8305 53.7571 12.9288 53.6851 13.0013C53.613 13.0738 53.5153 13.1147 53.4133 13.1149Z" fill="white"/>
<path d="M56.8641 14.8824H48.5138C48.4118 14.8822 48.314 14.8414 48.242 14.7688C48.1699 14.6963 48.1295 14.598 48.1295 14.4956C48.1295 14.3931 48.1699 14.2949 48.242 14.2223C48.314 14.1498 48.4118 14.109 48.5138 14.1088H56.8641C56.966 14.109 57.0638 14.1498 57.1358 14.2223C57.2079 14.2949 57.2484 14.3931 57.2484 14.4956C57.2484 14.598 57.2079 14.6963 57.1358 14.7688C57.0638 14.8414 56.966 14.8822 56.8641 14.8824Z" fill="white"/>
<path d="M58.7962 16.65H48.5138C48.4118 16.6498 48.314 16.6089 48.242 16.5364C48.1699 16.4639 48.1295 16.3656 48.1295 16.2632C48.1295 16.1607 48.1699 16.0624 48.242 15.9899C48.314 15.9174 48.4118 15.8765 48.5138 15.8763H58.7962C58.8469 15.8762 58.897 15.8862 58.9438 15.9056C58.9906 15.925 59.0332 15.9534 59.069 15.9894C59.1048 16.0253 59.1333 16.068 59.1527 16.115C59.1721 16.1619 59.1821 16.2123 59.1821 16.2632C59.1821 16.314 59.1721 16.3644 59.1527 16.4114C59.1333 16.4584 59.1048 16.501 59.069 16.537C59.0332 16.5729 58.9906 16.6014 58.9438 16.6208C58.897 16.6402 58.8469 16.6501 58.7962 16.65Z" fill="white"/>
<path d="M58.4742 19.8479H56.7717C56.5842 19.8479 56.4043 19.773 56.2717 19.6398C56.1391 19.5066 56.0646 19.3259 56.0646 19.1376C56.0646 18.9492 56.1391 18.7685 56.2717 18.6353C56.4043 18.5021 56.5842 18.4272 56.7717 18.4272H58.4742C58.6618 18.4272 58.8416 18.5021 58.9742 18.6353C59.1068 18.7685 59.1813 18.9492 59.1813 19.1376C59.1813 19.3259 59.1068 19.5066 58.9742 19.6398C58.8416 19.773 58.6618 19.8479 58.4742 19.8479Z" fill="white"/>
<path d="M100.75 40.2305H57.9212C57.5828 40.2301 57.2584 40.0949 57.0191 39.8545C56.7798 39.6141 56.6452 39.2882 56.6448 38.9482V15.97C56.6452 15.63 56.7798 15.3041 57.0191 15.0637C57.2584 14.8233 57.5828 14.6881 57.9212 14.6877H100.75C101.088 14.6881 101.413 14.8233 101.652 15.0637C101.891 15.3041 102.026 15.63 102.026 15.97V38.9482C102.026 39.2882 101.891 39.6141 101.652 39.8545C101.413 40.0949 101.088 40.2301 100.75 40.2305Z" fill="#6C63FF"/>
<path d="M65.236 30.7674C67.8369 30.7674 69.9454 28.6493 69.9454 26.0365C69.9454 23.4238 67.8369 21.3057 65.236 21.3057C62.6351 21.3057 60.5267 23.4238 60.5267 26.0365C60.5267 28.6493 62.6351 30.7674 65.236 30.7674Z" fill="white"/>
<path d="M95.5607 21.8004H76.3328C76.1419 21.8004 75.9587 21.7242 75.8237 21.5886C75.6887 21.4529 75.6128 21.2689 75.6128 21.0771C75.6128 20.8853 75.6887 20.7013 75.8237 20.5656C75.9587 20.43 76.1419 20.3538 76.3328 20.3538H95.5607C95.6553 20.3538 95.7489 20.3725 95.8362 20.4088C95.9236 20.4452 96.003 20.4985 96.0699 20.5656C96.1367 20.6328 96.1898 20.7125 96.2259 20.8003C96.2621 20.8881 96.2808 20.9821 96.2808 21.0771C96.2808 21.1721 96.2621 21.2662 96.2259 21.3539C96.1898 21.4417 96.1367 21.5214 96.0699 21.5886C96.003 21.6558 95.9236 21.709 95.8362 21.7454C95.7489 21.7817 95.6553 21.8004 95.5607 21.8004Z" fill="white"/>
<path d="M85.4948 25.1072H76.3328C76.1419 25.1072 75.9587 25.031 75.8237 24.8953C75.6886 24.7597 75.6128 24.5757 75.6128 24.3839C75.6128 24.192 75.6886 24.008 75.8237 23.8724C75.9587 23.7367 76.1419 23.6605 76.3328 23.6605H85.4948C85.6858 23.6605 85.8689 23.7367 86.0039 23.8724C86.139 24.008 86.2149 24.192 86.2149 24.3839C86.2149 24.5757 86.139 24.7597 86.0039 24.8953C85.8689 25.031 85.6858 25.1072 85.4948 25.1072Z" fill="white"/>
<path d="M91.9476 28.4125H76.3328C76.1419 28.4125 75.9587 28.3363 75.8237 28.2006C75.6887 28.065 75.6128 27.881 75.6128 27.6891C75.6128 27.4973 75.6887 27.3133 75.8237 27.1777C75.9587 27.042 76.1419 26.9658 76.3328 26.9658H91.9476C92.1385 26.9658 92.3217 27.042 92.4567 27.1777C92.5918 27.3133 92.6676 27.4973 92.6676 27.6891C92.6676 27.881 92.5918 28.065 92.4567 28.2006C92.3217 28.3363 92.1385 28.4125 91.9476 28.4125Z" fill="white"/>
<path d="M95.5607 31.7178H76.3328C76.1419 31.7178 75.9587 31.6416 75.8237 31.5059C75.6887 31.3703 75.6128 31.1863 75.6128 30.9944C75.6128 30.8026 75.6887 30.6186 75.8237 30.4829C75.9587 30.3473 76.1419 30.2711 76.3328 30.2711H95.5607C95.7517 30.2711 95.9348 30.3473 96.0699 30.4829C96.2049 30.6186 96.2808 30.8026 96.2808 30.9944C96.2808 31.1863 96.2049 31.3703 96.0699 31.5059C95.9348 31.6416 95.7517 31.7178 95.5607 31.7178Z" fill="white"/>
<path d="M94.9586 37.6976H91.7749C91.6012 37.6978 91.4291 37.6636 91.2685 37.5969C91.1079 37.5303 90.962 37.4324 90.8391 37.3091C90.7161 37.1857 90.6186 37.0392 90.5521 36.878C90.4855 36.7168 90.4513 36.5439 90.4513 36.3694C90.4513 36.1948 90.4855 36.022 90.5521 35.8608C90.6186 35.6995 90.7161 35.553 90.8391 35.4297C90.962 35.3063 91.1079 35.2085 91.2685 35.1418C91.4291 35.0752 91.6012 35.041 91.7749 35.0411H94.9586C95.1323 35.041 95.3044 35.0752 95.465 35.1418C95.6255 35.2085 95.7715 35.3063 95.8944 35.4297C96.0173 35.553 96.1148 35.6995 96.1814 35.8608C96.2479 36.022 96.2822 36.1948 96.2822 36.3694C96.2822 36.5439 96.2479 36.7168 96.1814 36.878C96.1148 37.0392 96.0173 37.1857 95.8944 37.3091C95.7715 37.4324 95.6255 37.5303 95.465 37.5969C95.3044 37.6636 95.1323 37.6978 94.9586 37.6976Z" fill="white"/>
<path d="M138.211 69.4167C138.211 69.4167 134.459 50.1946 133.867 48.5744C133.541 47.6889 133.326 47.0447 133.326 47.0447L122.298 47.6783L122.208 48.5744L120.721 71.055C120.721 71.055 121.247 69.6264 121.718 69.3639C122.19 69.1014 122.14 71.052 122.14 71.052" fill="#2F2E41"/>
<path d="M122.382 47.6705H132.035C131.764 46.6962 132.035 45.7931 132.422 45.1003C132.693 44.6135 133.034 44.1695 133.433 43.7824L133.499 43.7228L136.872 42.9716L137.053 42.9319C137.053 42.9319 137.08 36.7761 134.911 35.9315C133.72 35.4736 132.6 34.8455 131.587 34.0663C131.487 33.9873 131.365 33.9423 131.238 33.9379L126.503 33.7638C126.358 33.7589 126.215 33.807 126.102 33.8993C125.319 34.5315 122.83 35.8008 121.492 36.4648C121.257 36.5812 121.075 36.7841 120.985 37.0314C120.895 37.2787 120.903 37.5513 121.008 37.7926C121.543 39.0254 122.451 41.0872 122.546 41.0872C122.682 41.0872 122.382 47.6705 122.382 47.6705Z" fill="#6C63FF"/>
<path d="M128.927 37.6866L133.463 49.4707C133.463 49.4707 130.396 50.1811 127.438 46.5492L126.37 44.2084L123.965 35.287L128.927 37.6866Z" fill="#F6F8FB"/>
<path d="M130.131 31.3781C133.531 31.3781 136.288 28.6089 136.288 25.193C136.288 21.777 133.531 19.0079 130.131 19.0079C126.73 19.0079 123.974 21.777 123.974 25.193C123.974 28.6089 126.73 31.3781 130.131 31.3781Z" fill="#2F2E41"/>
<path d="M126.225 45.9158C126.394 46.1279 126.626 46.2797 126.887 46.3489C127.148 46.4181 127.424 46.401 127.675 46.3001L130.974 47.5967L132.073 45.1006L128.356 44.6185C128.284 44.4543 128.178 44.3075 128.044 44.1879C127.911 44.0682 127.754 43.9785 127.584 43.9246C127.414 43.8707 127.234 43.8539 127.056 43.8754C126.879 43.8969 126.708 43.9561 126.556 44.0491C126.403 44.1421 126.272 44.2668 126.171 44.4148C126.07 44.5628 126.001 44.7307 125.97 44.9074C125.939 45.084 125.945 45.2654 125.989 45.4393C126.033 45.6132 126.114 45.7756 126.225 45.9158Z" fill="#A0616A"/>
<path d="M129.197 32.869C131.374 32.869 133.138 31.0968 133.138 28.9107C133.138 26.7246 131.374 24.9525 129.197 24.9525C127.021 24.9525 125.257 26.7246 125.257 28.9107C125.257 31.0968 127.021 32.869 129.197 32.869Z" fill="#A0616A"/>
<path d="M134.738 26.289C132.643 27.4351 130.285 28.0076 127.899 27.949C126.986 27.9252 125.979 27.7582 125.401 27.0476C124.748 26.2458 124.911 24.993 125.541 24.1727C126.171 23.3524 127.156 22.89 128.139 22.5764C129.068 22.2797 130.065 22.0886 131.018 22.296C131.522 22.4055 131.995 22.6225 132.408 22.9324C132.82 23.2422 133.161 23.6377 133.408 24.0917C133.654 24.5458 133.8 25.0479 133.837 25.5638C133.873 26.0798 133.798 26.5975 133.617 27.0818" fill="#2F2E41"/>
<path d="M134.486 24.2878C136.393 24.2878 137.94 22.7344 137.94 20.8181C137.94 18.9019 136.393 17.3484 134.486 17.3484C132.578 17.3484 131.032 18.9019 131.032 20.8181C131.032 22.7344 132.578 24.2878 134.486 24.2878Z" fill="#2F2E41"/>
<path d="M135.723 41.2963L137.052 42.9319L137.323 47.3714C137.323 47.3714 137.672 49.6321 135.1 49.0877C132.527 48.5432 129.216 47.4845 129.216 47.4845C129.216 47.4845 130.978 44.9192 130.192 44.1843L133.88 45.383C133.88 45.383 134.503 45.2463 134.014 44.7019C133.526 44.1575 133.44 43.1761 133.44 43.1761L135.723 41.2963Z" fill="#6C63FF"/>
<path d="M128.897 45.14C128.641 45.2263 128.364 45.2274 128.107 45.1432C127.851 45.059 127.628 44.894 127.472 44.6726L124.001 43.9642L124.425 41.2684L127.808 42.8889C127.957 42.7903 128.126 42.7249 128.302 42.6969C128.478 42.669 128.659 42.6791 128.831 42.7267C129.003 42.7743 129.163 42.8582 129.301 42.9729C129.438 43.0876 129.55 43.2304 129.628 43.3918C129.706 43.5532 129.749 43.7294 129.754 43.9088C129.759 44.0881 129.725 44.2665 129.656 44.4319C129.587 44.5974 129.484 44.7461 129.353 44.8682C129.222 44.9903 129.066 45.083 128.897 45.14Z" fill="#A0616A"/>
<path d="M124.316 38.9065C124.316 38.9065 123.714 39.684 123.009 39.8751C122.305 40.0662 122.755 40.5208 122.755 40.5208L126.5 41.5237C125.443 41.7126 125.537 44.8277 125.537 44.8277C125.537 44.8277 122.184 43.9127 119.729 42.968C117.274 42.0233 118.788 40.3144 118.788 40.3144L121.413 36.7327L123.413 36.0832L124.316 38.9065Z" fill="#6C63FF"/>
<path d="M9.47028 81.2215L11.2773 82.0016L15.1326 75.3711L12.4657 74.2197L9.47028 81.2215Z" fill="#FFB8B8"/>
<path d="M14.0411 85.1917L8.3619 82.7399L9.3049 80.5356L12.8719 82.0756C13.4321 82.3174 13.8737 82.7729 14.0996 83.3419C14.3254 83.9108 14.3171 84.5465 14.0763 85.1093L14.0411 85.1917L14.0411 85.1917Z" fill="#2F2E41"/>
<path d="M21.9347 83.4555H23.9016L24.8376 75.8346H21.9347V83.4555Z" fill="#FFB8B8"/>
<path d="M27.6947 85.2902H21.5133V82.891H25.3957C26.0054 82.891 26.5902 83.1344 27.0213 83.5675C27.4525 84.0006 27.6947 84.588 27.6947 85.2005V85.2902L27.6947 85.2902Z" fill="#2F2E41"/>
<g opacity="0.1">
<path opacity="0.1" d="M9.96124 25.3124L10.0736 25.3366C10.0408 25.3142 10.0004 25.3055 9.96124 25.3124Z" fill="url(#paint0_linear_87_139)"/>
</g>
<path d="M25.2566 76.6312L20.7325 76.8114C19.628 76.0654 16.199 58.4443 16.199 58.4443C16.2224 58.5807 15.77 75.9338 15.77 75.9338H10.9027L8.51135 48.8734L11.1507 49.9409C11.1507 49.9409 23.2365 48.9564 23.7997 49.657C23.9183 49.8856 25.2566 76.6312 25.2566 76.6312Z" fill="#2F2E41"/>
<path d="M15.0677 29.7011C17.2439 29.7011 19.008 27.9289 19.008 25.7428C19.008 23.5567 17.2439 21.7845 15.0677 21.7845C12.8916 21.7845 11.1274 23.5567 11.1274 25.7428C11.1274 27.9289 12.8916 29.7011 15.0677 29.7011Z" fill="#FFB8B8"/>
<path d="M21.7445 56.9901C21.5747 56.7657 21.4813 56.4924 21.4782 56.2106C21.4751 55.9287 21.5625 55.6534 21.7274 55.4253L21.2645 51.7583L24.0466 51.2799L23.5865 55.1633C23.7327 55.278 23.853 55.4227 23.9392 55.5878C24.0254 55.7529 24.0755 55.9345 24.0863 56.1206C24.0971 56.3067 24.0682 56.4929 24.0017 56.667C23.9351 56.841 23.8324 56.9987 23.7003 57.1297C23.5683 57.2606 23.41 57.3618 23.2359 57.4264C23.0619 57.491 22.8761 57.5176 22.691 57.5044C22.5059 57.4912 22.3257 57.4385 22.1625 57.3498C21.9993 57.2611 21.8568 57.1385 21.7445 56.9901H21.7445Z" fill="#FFB8B8"/>
<path d="M15.6647 23.0878L15.7525 23.1066C15.7267 23.0895 15.6953 23.0828 15.6647 23.0878Z" fill="#E1E7EF"/>
<path d="M13.8025 24.2591C14.6604 24.4474 15.5333 24.627 16.4095 24.5685C17.2857 24.5099 18.1793 24.1841 18.7482 23.5122C19.3172 22.8402 19.4745 21.7853 18.9696 21.0636C18.3691 20.2055 17.165 20.1026 16.1211 20.0809L12.8317 20.0124C12.1818 19.9988 11.4998 19.9925 10.9242 20.2959C9.92419 20.8232 9.57897 22.1038 9.59896 23.2381C9.62542 24.3229 9.8851 25.3891 10.3602 26.3636C10.8353 27.3381 11.5146 28.1979 12.3514 28.8839C12.7966 29.2438 13.5295 29.5175 13.8688 29.0556C14.0168 28.8542 12.5722 26.5365 12.568 26.2863C12.5438 24.8315 13.9661 25.4241 13.9418 23.9693" fill="#2F2E41"/>
<path d="M10.0053 49.8718C13.7548 52.8176 17.8936 54.3024 22.5787 53.7365C20.6 46.7572 20.0131 39.8308 21.9219 32.9992L17.981 31.2083L12.6325 30.9255L9.41287 31.8768C8.95996 32.0107 8.56344 32.2906 8.28439 32.6731C8.00533 33.0557 7.85921 33.5199 7.86852 33.9941C7.98221 39.8202 8.51514 45.2726 10.0053 49.8718Z" fill="#E6E6E6"/>
<path d="M21.8281 54.302L24.2677 54.5848L23.6965 36.3862C23.6709 35.5731 23.4129 34.7845 22.9531 34.1148C22.4933 33.445 21.8512 32.9225 21.1036 32.6096L20.2329 32.2451L20.4675 40.7757L21.8281 54.302Z" fill="#E6E6E6"/>
<path d="M9.86963 53.0745C9.62528 52.936 9.43185 52.7221 9.31798 52.4645C9.20411 52.207 9.17586 51.9194 9.23743 51.6444L7.36774 48.4608L9.73416 46.9154L10.8415 50.6646C11.021 50.7118 11.1885 50.7969 11.3326 50.9142C11.4768 51.0316 11.5944 51.1784 11.6777 51.3451C11.7609 51.5117 11.8077 51.6942 11.8152 51.8804C11.8226 52.0667 11.7904 52.2524 11.7207 52.4252C11.6511 52.5979 11.5455 52.7538 11.4111 52.8823C11.2767 53.0109 11.1166 53.1092 10.9414 53.1706C10.7663 53.2321 10.58 53.2553 10.3952 53.2387C10.2104 53.2221 10.0312 53.1662 9.86963 53.0745Z" fill="#FFB8B8"/>
<path d="M8.87926 51.6628L11.1634 49.9704L8.69159 42.6138L9.583 31.821C7.64662 32.4323 5.56745 34.0746 5.22499 36.0844L4 43.2736L8.87926 51.6628Z" fill="#E6E6E6"/>
<path opacity="0.2" d="M9.84542 40.881L8.84003 44.9206L11.1214 50.6529L9.38139 45.2313L9.84542 40.881Z" fill="black"/>
<path opacity="0.2" d="M19.8033 42.9751L20.5794 51.6314L19.2653 43.0354L19.8033 42.9751Z" fill="black"/>
</g>

</svg>
