<svg width="126" height="136" viewBox="0 0 126 136" fill="none" xmlns="http://www.w3.org/2000/svg">
<path d="M116.305 133.805H114.066L113.001 125.197L116.305 125.197L116.305 133.805Z" fill="#FFB8B8"/>
<path d="M112.467 133.168H116.784V135.878H109.749C109.749 135.159 110.035 134.47 110.545 133.961C111.055 133.453 111.746 133.168 112.467 133.168Z" fill="#2F2E41"/>
<path d="M125.01 133.175L122.783 133.393L120.876 124.931L124.164 124.608L125.01 133.175Z" fill="#FFB8B8"/>
<path d="M121.129 132.915L125.425 132.493L125.692 135.19L118.69 135.878C118.655 135.524 118.691 135.166 118.794 134.825C118.898 134.485 119.068 134.168 119.294 133.893C119.521 133.618 119.799 133.39 120.114 133.222C120.429 133.054 120.774 132.95 121.129 132.915Z" fill="#2F2E41"/>
<path d="M123.281 78.6334C125.274 79.3345 125.624 86.9298 125.624 86.9298C123.281 85.6445 120.468 87.7477 120.468 87.7477C120.468 87.7477 119.882 85.7614 119.179 83.1908C118.966 82.4677 118.941 81.7029 119.105 80.9674C119.269 80.232 119.617 79.5498 120.116 78.9845C120.116 78.9845 121.289 77.9319 123.281 78.6334Z" fill="#6066D0"/>
<path d="M13.0786 114.568L11.8808 109.858C9.75709 108.961 7.58432 108.184 5.37282 107.53L5.22164 109.719L4.60851 107.308C1.86586 106.526 0 106.182 0 106.182C0 106.182 2.51971 115.737 7.80635 123.042L13.9658 124.121L9.18069 124.809C9.84569 125.607 10.5603 126.362 11.3204 127.07C19.0101 134.187 27.5751 137.452 30.4507 134.363C33.3263 131.274 29.4236 123.001 21.7339 115.886C19.3501 113.68 16.3555 111.909 13.3577 110.515L13.0786 114.568Z" fill="#F2F2F2"/>
<path d="M24.4695 109.452L25.886 104.803C24.5334 102.941 23.0765 101.156 21.5222 99.4565L20.2579 101.252L20.9832 98.872C19.0403 96.7902 17.6214 95.5342 17.6214 95.5342C17.6214 95.5342 14.8251 105.013 15.5627 113.99L20.2762 118.088L15.8225 116.211C15.9784 117.237 16.1988 118.252 16.4824 119.25C19.3757 129.305 25.0149 136.514 29.0778 135.352C33.1408 134.19 34.0891 125.097 31.1959 115.042C30.299 111.924 28.6531 108.866 26.8096 106.128L24.4695 109.452Z" fill="#F2F2F2"/>
<path d="M94.9001 32.2185H94.153V11.8115C94.153 10.2604 93.8466 8.72446 93.2512 7.29143C92.6558 5.85839 91.7832 4.5563 90.6831 3.4595C89.583 2.36271 88.2771 1.49268 86.8397 0.899095C85.4024 0.305512 83.8619 0 82.3061 0H38.9403C35.7983 0 32.785 1.24442 30.5633 3.4595C28.3416 5.67459 27.0935 8.67888 27.0935 11.8115V123.768C27.0935 125.319 27.3999 126.855 27.9953 128.288C28.5906 129.721 29.4633 131.023 30.5633 132.12C31.6634 133.217 32.9694 134.087 34.4067 134.68C35.844 135.274 37.3846 135.579 38.9403 135.579H82.3061C85.4481 135.579 88.4613 134.335 90.683 132.12C92.9047 129.905 94.1528 126.9 94.1528 123.768V46.7446H94.8999L94.9001 32.2185Z" fill="#E6E6E6"/>
<path d="M82.7841 3.07178H77.1239C77.3842 3.70812 77.4836 4.39854 77.4132 5.0822C77.3429 5.76585 77.1049 6.42176 76.7204 6.99214C76.3359 7.56252 75.8166 8.02986 75.2082 8.35299C74.5999 8.67611 73.9212 8.84511 73.2319 8.84508H48.3881C47.6988 8.84505 47.0201 8.67601 46.4118 8.35286C45.8035 8.02971 45.2842 7.56236 44.8997 6.99199C44.5153 6.42162 44.2774 5.76573 44.207 5.08211C44.1367 4.39848 44.2361 3.7081 44.4964 3.07178H39.2094C36.863 3.07178 34.6127 4.0011 32.9535 5.6553C31.2944 7.3095 30.3623 9.55308 30.3623 11.8925V123.686C30.3623 126.026 31.2944 128.269 32.9535 129.923C34.6127 131.578 36.863 132.507 39.2094 132.507H82.7841C85.1305 132.507 87.3808 131.578 89.04 129.923C90.6991 128.269 91.6312 126.026 91.6312 123.686V123.686V11.8923C91.6312 9.55293 90.699 7.3094 89.0399 5.65524C87.3807 4.00107 85.1305 3.07178 82.7841 3.07178V3.07178Z" fill="white"/>
<path d="M55.4442 47.6048C55.444 46.8234 55.6503 46.0557 56.0424 45.379C56.4344 44.7023 56.9982 44.1406 57.6772 43.7502C56.9986 43.3594 56.2287 43.1537 55.445 43.1536C54.6613 43.1535 53.8914 43.3591 53.2127 43.7497C52.5339 44.1403 51.9703 44.7022 51.5784 45.3789C51.1865 46.0556 50.9802 46.8231 50.9802 47.6045C50.9802 48.3859 51.1865 49.1535 51.5784 49.8301C51.9703 50.5068 52.5339 51.0687 53.2127 51.4593C53.8914 51.8499 54.6613 52.0555 55.445 52.0555C56.2287 52.0554 56.9986 51.8496 57.6772 51.4588C56.9983 51.0685 56.4344 50.5069 56.0424 49.8303C55.6504 49.1537 55.4441 48.3861 55.4442 47.6048V47.6048Z" fill="#CCCCCC"/>
<path d="M61.0564 47.6048C61.0562 46.8233 61.2625 46.0557 61.6546 45.379C62.0466 44.7023 62.6104 44.1405 63.2894 43.7502C62.6108 43.3594 61.8409 43.1537 61.0572 43.1536C60.2735 43.1535 59.5036 43.3591 58.8249 43.7497C58.1462 44.1403 57.5825 44.7022 57.1906 45.3789C56.7988 46.0556 56.5925 46.8231 56.5925 47.6045C56.5925 48.3859 56.7988 49.1535 57.1906 49.8301C57.5825 50.5068 58.1462 51.0687 58.8249 51.4593C59.5036 51.8499 60.2735 52.0555 61.0572 52.0555C61.8409 52.0554 62.6108 51.8496 63.2894 51.4588C62.6105 51.0685 62.0467 50.5069 61.6546 49.8303C61.2626 49.1537 61.0563 48.3861 61.0564 47.6048V47.6048Z" fill="#CCCCCC"/>
<path d="M66.5411 52.0555C69.0067 52.0555 71.0054 50.0628 71.0054 47.6046C71.0054 45.1464 69.0067 43.1536 66.5411 43.1536C64.0756 43.1536 62.0768 45.1464 62.0768 47.6046C62.0768 50.0628 64.0756 52.0555 66.5411 52.0555Z" fill="#6066D0"/>
<path d="M74.002 61.5066H47.9833C47.7356 61.5063 47.4981 61.4081 47.323 61.2335C47.1478 61.0588 47.0493 60.8221 47.049 60.5751V34.634C47.0493 34.387 47.1478 34.1503 47.323 33.9756C47.4981 33.801 47.7356 33.7028 47.9833 33.7025H74.002C74.2497 33.7028 74.4872 33.801 74.6624 33.9756C74.8375 34.1503 74.936 34.387 74.9363 34.634V60.5751C74.936 60.8221 74.8375 61.0588 74.6624 61.2335C74.4872 61.4081 74.2497 61.5063 74.002 61.5066V61.5066ZM47.9833 34.0753C47.8347 34.0755 47.6922 34.1344 47.5871 34.2392C47.482 34.3439 47.4229 34.486 47.4228 34.6342V60.5753C47.4229 60.7235 47.482 60.8655 47.5871 60.9703C47.6922 61.0751 47.8347 61.134 47.9833 61.1341H74.002C74.1507 61.134 74.2931 61.0751 74.3982 60.9703C74.5033 60.8655 74.5624 60.7235 74.5626 60.5753V34.6342C74.5624 34.486 74.5033 34.3439 74.3982 34.2392C74.2931 34.1344 74.1507 34.0755 74.002 34.0753H47.9833Z" fill="#CCCCCC"/>
<path d="M79.8116 81.3917H39.9067V81.7643H79.8116V81.3917Z" fill="#CCCCCC"/>
<path d="M41.1669 79.0652C41.8629 79.0652 42.4272 78.5026 42.4272 77.8087C42.4272 77.1148 41.8629 76.5522 41.1669 76.5522C40.4709 76.5522 39.9067 77.1148 39.9067 77.8087C39.9067 78.5026 40.4709 79.0652 41.1669 79.0652Z" fill="#6066D0"/>
<path d="M79.8116 93.9556H39.9067V94.3282H79.8116V93.9556Z" fill="#CCCCCC"/>
<path d="M41.1669 91.6292C41.8629 91.6292 42.4272 91.0667 42.4272 90.3728C42.4272 89.6789 41.8629 89.1163 41.1669 89.1163C40.4709 89.1163 39.9067 89.6789 39.9067 90.3728C39.9067 91.0667 40.4709 91.6292 41.1669 91.6292Z" fill="#6066D0"/>
<path d="M79.0813 108.263H66.4703C66.2525 108.263 66.0436 108.176 65.8896 108.023C65.7355 107.869 65.6489 107.661 65.6487 107.444V103.037C65.6489 102.819 65.7355 102.611 65.8896 102.458C66.0436 102.304 66.2525 102.218 66.4703 102.217H79.0813C79.2992 102.218 79.508 102.304 79.6621 102.458C79.8161 102.611 79.9027 102.819 79.903 103.037V107.444C79.9027 107.661 79.8161 107.869 79.6621 108.023C79.508 108.176 79.2992 108.263 79.0813 108.263V108.263Z" fill="#FCA82F"/>
<path d="M45.2777 79.0652C45.9737 79.0652 46.538 78.5026 46.538 77.8087C46.538 77.1148 45.9737 76.5522 45.2777 76.5522C44.5817 76.5522 44.0175 77.1148 44.0175 77.8087C44.0175 78.5026 44.5817 79.0652 45.2777 79.0652Z" fill="#6066D0"/>
<path d="M49.3885 79.0652C50.0845 79.0652 50.6487 78.5026 50.6487 77.8087C50.6487 77.1148 50.0845 76.5522 49.3885 76.5522C48.6925 76.5522 48.1283 77.1148 48.1283 77.8087C48.1283 78.5026 48.6925 79.0652 49.3885 79.0652Z" fill="#6066D0"/>
<path d="M45.2777 91.6292C45.9737 91.6292 46.538 91.0667 46.538 90.3728C46.538 89.6789 45.9737 89.1163 45.2777 89.1163C44.5817 89.1163 44.0175 89.6789 44.0175 90.3728C44.0175 91.0667 44.5817 91.6292 45.2777 91.6292Z" fill="#6066D0"/>
<path d="M49.3885 91.6292C50.0845 91.6292 50.6487 91.0667 50.6487 90.3728C50.6487 89.6789 50.0845 89.1163 49.3885 89.1163C48.6925 89.1163 48.1283 89.6789 48.1283 90.3728C48.1283 91.0667 48.6925 91.6292 49.3885 91.6292Z" fill="#6066D0"/>
<path d="M103.103 89.1029C103.193 89.1438 103.279 89.1917 103.361 89.2463L111.55 85.7614L111.842 83.6105L115.115 83.5906L114.921 88.5236L104.112 91.3736C104.089 91.4485 104.062 91.522 104.03 91.5936C103.874 91.926 103.623 92.2051 103.308 92.3956C102.993 92.5861 102.629 92.6797 102.261 92.6645C101.893 92.6493 101.538 92.526 101.24 92.3102C100.942 92.0944 100.715 91.7956 100.586 91.4514C100.458 91.1072 100.435 90.7329 100.519 90.3755C100.604 90.0181 100.792 89.6936 101.061 89.4427C101.33 89.1918 101.667 89.0257 102.031 88.9652C102.394 88.9048 102.767 88.9527 103.103 89.1029V89.1029Z" fill="#FFB8B8"/>
<path d="M116.928 74.48C119.404 74.48 121.412 72.4782 121.412 70.0089C121.412 67.5395 119.404 65.5377 116.928 65.5377C114.451 65.5377 112.443 67.5395 112.443 70.0089C112.443 72.4782 114.451 74.48 116.928 74.48Z" fill="#FFB8B8"/>
<path d="M113.566 132.064C113.374 132.065 113.187 131.998 113.04 131.874C112.892 131.751 112.793 131.58 112.76 131.391C111.601 124.979 107.814 104.011 107.723 103.43C107.721 103.417 107.72 103.403 107.72 103.39V101.827C107.72 101.77 107.738 101.714 107.771 101.668L108.272 100.969C108.296 100.936 108.327 100.908 108.363 100.888C108.399 100.868 108.439 100.857 108.481 100.855C111.333 100.722 120.675 100.331 121.126 100.893C121.579 101.458 121.419 103.17 121.382 103.508L121.384 103.543L125.581 130.302C125.614 130.516 125.561 130.733 125.434 130.908C125.307 131.083 125.116 131.201 124.903 131.237L122.281 131.668C122.086 131.699 121.886 131.659 121.718 131.556C121.549 131.453 121.424 131.292 121.364 131.105C120.553 128.522 117.834 119.833 116.892 116.471C116.886 116.449 116.873 116.431 116.854 116.419C116.836 116.407 116.814 116.402 116.792 116.405C116.77 116.408 116.75 116.419 116.735 116.436C116.721 116.452 116.713 116.474 116.713 116.496C116.76 119.701 116.874 127.878 116.913 130.702L116.918 131.006C116.919 131.212 116.844 131.411 116.705 131.564C116.567 131.717 116.376 131.813 116.17 131.832L113.643 132.061C113.617 132.063 113.591 132.064 113.566 132.064Z" fill="#2F2E41"/>
<path d="M114.082 76.2381C113.299 76.702 112.831 77.5544 112.562 78.4217C112.064 80.0276 111.765 81.6879 111.67 83.3659L111.386 88.3903L107.87 101.71C110.918 104.281 112.675 103.697 116.777 101.594C120.879 99.4915 121.348 102.295 121.348 102.295L122.168 90.9615L123.34 78.5767C123.077 78.2609 122.779 77.9755 122.452 77.7258C121.369 76.886 120.109 76.3023 118.766 76.0186C117.424 75.735 116.035 75.7588 114.703 76.0883L114.082 76.2381Z" fill="#6066D0"/>
<path d="M112.94 91.7931C113.034 91.8286 113.126 91.8714 113.214 91.9212L121.311 87.8804L121.446 85.6912L124.786 85.4616L124.965 90.4519L114.144 94.0198C114.055 94.3977 113.854 94.7397 113.565 95.0005C113.277 95.2614 112.916 95.4285 112.531 95.4799C112.145 95.5312 111.753 95.4642 111.406 95.2878C111.059 95.1115 110.775 94.8341 110.59 94.4926C110.406 94.151 110.33 93.7615 110.372 93.3759C110.415 92.9903 110.575 92.6268 110.83 92.3337C111.085 92.0407 111.423 91.832 111.8 91.7354C112.177 91.6389 112.575 91.659 112.94 91.7931Z" fill="#FFB8B8"/>
<path d="M120.949 71.1913C120.39 70.7456 119.628 71.5557 119.628 71.5557L119.181 67.5447C119.181 67.5447 116.387 67.8783 114.599 67.4333C112.811 66.9883 112.532 69.049 112.532 69.049C112.439 68.2166 112.421 67.3777 112.476 66.5421C112.587 65.5393 114.04 64.5366 116.61 63.868C119.181 63.1994 120.522 66.0964 120.522 66.0964C122.31 66.9876 121.507 71.637 120.949 71.1913Z" fill="#2F2E41"/>
<path d="M57.791 19.041V24H56.765V23.415C56.603 23.619 56.39 23.781 56.126 23.901C55.868 24.015 55.592 24.072 55.298 24.072C54.908 24.072 54.557 23.991 54.245 23.829C53.939 23.667 53.696 23.427 53.516 23.109C53.342 22.791 53.255 22.407 53.255 21.957V19.041H54.272V21.804C54.272 22.248 54.383 22.59 54.605 22.83C54.827 23.064 55.13 23.181 55.514 23.181C55.898 23.181 56.201 23.064 56.423 22.83C56.651 22.59 56.765 22.248 56.765 21.804V19.041H57.791ZM59.6667 18.384C59.4807 18.384 59.3247 18.321 59.1987 18.195C59.0727 18.069 59.0097 17.913 59.0097 17.727C59.0097 17.541 59.0727 17.385 59.1987 17.259C59.3247 17.133 59.4807 17.07 59.6667 17.07C59.8467 17.07 59.9997 17.133 60.1257 17.259C60.2517 17.385 60.3147 17.541 60.3147 17.727C60.3147 17.913 60.2517 18.069 60.1257 18.195C59.9997 18.321 59.8467 18.384 59.6667 18.384ZM60.1707 19.041V24H59.1447V19.041H60.1707ZM62.4268 23.163H64.6768V24H61.2388V23.163L63.4978 19.878H61.2388V19.041H64.6768V19.878L62.4268 23.163Z" fill="#535050"/>
<path d="M50.301 25.107L49.347 23.964C49.083 24.03 48.813 24.063 48.537 24.063C47.949 24.063 47.409 23.925 46.917 23.649C46.425 23.373 46.035 22.992 45.747 22.506C45.459 22.014 45.315 21.459 45.315 20.841C45.315 20.229 45.459 19.68 45.747 19.194C46.035 18.702 46.425 18.318 46.917 18.042C47.409 17.766 47.949 17.628 48.537 17.628C49.131 17.628 49.671 17.766 50.157 18.042C50.649 18.318 51.036 18.702 51.318 19.194C51.606 19.68 51.75 20.229 51.75 20.841C51.75 21.399 51.63 21.909 51.39 22.371C51.156 22.827 50.835 23.199 50.427 23.487L51.867 25.107H50.301ZM46.611 20.841C46.611 21.261 46.692 21.63 46.854 21.948C47.016 22.266 47.241 22.512 47.529 22.686C47.823 22.854 48.159 22.938 48.537 22.938C48.915 22.938 49.248 22.854 49.536 22.686C49.824 22.512 50.049 22.266 50.211 21.948C50.373 21.63 50.454 21.261 50.454 20.841C50.454 20.421 50.373 20.055 50.211 19.743C50.049 19.425 49.824 19.182 49.536 19.014C49.248 18.846 48.915 18.762 48.537 18.762C48.159 18.762 47.823 18.846 47.529 19.014C47.241 19.182 47.016 19.425 46.854 19.743C46.692 20.055 46.611 20.421 46.611 20.841Z" fill="#6066D0"/>
<path d="M67.213 17.718V21.606C67.213 22.032 67.324 22.359 67.546 22.587C67.768 22.809 68.08 22.92 68.482 22.92C68.89 22.92 69.205 22.809 69.427 22.587C69.649 22.359 69.76 22.032 69.76 21.606V17.718H71.029V21.597C71.029 22.131 70.912 22.584 70.678 22.956C70.45 23.322 70.141 23.598 69.751 23.784C69.367 23.97 68.938 24.063 68.464 24.063C67.996 24.063 67.57 23.97 67.186 23.784C66.808 23.598 66.508 23.322 66.286 22.956C66.064 22.584 65.953 22.131 65.953 21.597V17.718H67.213Z" fill="#FCA82F"/>
</svg>
