<svg width="109" height="141" viewBox="0 0 109 141" fill="none" xmlns="http://www.w3.org/2000/svg">
<path opacity="0.12" d="M0.319899 34.443C0.387222 30.2767 1.34287 26.1745 3.12128 22.4177C4.89969 18.661 7.45877 15.3387 10.623 12.6786C17.1165 7.60614 26.7269 6.48282 33.636 10.9234C35.714 12.2749 37.5148 14.0301 39.6101 15.4167C46.2248 19.6292 54.8483 18.7516 62.2942 16.347C69.7401 13.9424 76.7877 10.1687 84.5107 8.86987C92.2337 7.57103 101.203 9.50174 105.446 16.1715C109.688 22.8412 107.351 32.6702 101.273 37.8305C96.0779 42.2184 88.5627 44.2545 85.6882 50.4327C84.644 53.1962 84.1667 56.1465 84.2856 59.1033C84.0778 67.458 84.0605 76.5148 88.9436 83.2547C91.3988 86.2034 94.1495 88.8857 97.1514 91.2584C103.506 97.033 108.771 104.51 108.996 113.514C109.057 116.385 108.465 119.232 107.264 121.834C102.779 131.593 92.5627 132.716 83.5237 132.049C76.5973 131.522 69.4803 130.188 62.7444 132.049C57.8613 133.365 53.5495 136.261 48.8915 138.192C41.9114 141.048 34.2529 141.745 26.8828 140.193C22.3461 139.405 18.1341 137.295 14.7615 134.12C8.14677 127.17 8.25067 116.112 9.89569 106.564C11.5407 97.0154 14.2767 87.0459 11.281 77.8488C10.5249 75.631 9.53811 73.501 8.33725 71.495C1.99975 60.7283 -0.841039 48.2158 0.216002 35.7242L0.319899 34.443Z" fill="#AAAAAA"/>
<path d="M41.8785 128.117L62.502 62.877L41.2378 55.9616L20.597 121.097C19.61 124.221 22.4845 126.766 24.9953 124.993L32.8741 119.534L36.0776 128.679C37.082 131.628 40.8742 131.224 41.8785 128.117V128.117Z" fill="#EBF0F9"/>
<path d="M67.5063 128.117L46.727 62.877L68.0085 55.9616L88.7185 121.097C89.7055 124.221 86.8311 126.766 84.3202 124.993L76.4587 119.447L73.2552 128.591C72.2336 131.628 68.4241 131.224 67.5063 128.117Z" fill="#EBF0F9"/>
<path d="M80.8397 94.7688C75.1369 99.9792 68.0612 103.394 60.476 104.598L52.9262 80.7273L60.7704 55.9089L52.9262 53.3639L66.3461 48.9935L80.8397 94.7688Z" fill="white"/>
<path d="M48.4586 54.1011L56.3894 78.9721L48.9781 102.316C41.3944 100.604 34.4787 96.6598 29.0992 90.9776L42.9521 47.1856L56.3894 51.5561L48.4586 54.1011Z" fill="white"/>
<path d="M38.6923 130.68C37.7388 130.68 36.8101 130.372 36.041 129.801C35.2719 129.23 34.7024 128.425 34.4153 127.503L31.9737 120.482L25.9477 124.765C25.1742 125.348 24.2361 125.662 23.2724 125.662C22.3086 125.662 21.3705 125.348 20.597 124.765C19.7383 124.091 19.1095 123.162 18.7989 122.107C18.4883 121.052 18.5116 119.926 18.8654 118.885L40.1123 52.0124L64.6838 59.9985L43.5235 126.889C43.2204 127.946 42.598 128.88 41.7439 129.56C40.8897 130.24 39.8467 130.632 38.7616 130.68H38.6923ZM33.7226 115.024L37.688 126.362C37.7354 126.598 37.8609 126.81 38.0436 126.963C38.2263 127.116 38.4552 127.202 38.6923 127.205C39.051 127.166 39.389 127.016 39.6591 126.773C39.9292 126.531 40.1179 126.209 40.1988 125.853L41.9304 126.397L40.1988 125.853L60.3374 62.2627L42.346 56.4179L22.2421 119.956C22.1045 120.293 22.0739 120.665 22.1546 121.02C22.2353 121.376 22.4232 121.697 22.6923 121.939C22.8793 122.09 23.1112 122.172 23.3503 122.172C23.5893 122.172 23.8213 122.09 24.0083 121.939L33.7226 115.024Z" fill="#606060"/>
<path d="M70.6232 130.68C69.523 130.65 68.4606 130.267 67.5892 129.585C66.7178 128.904 66.0824 127.96 65.7747 126.889L44.6317 59.9985L69.2379 52.0124L90.3635 118.885C90.7174 119.926 90.7406 121.052 90.43 122.107C90.1195 123.162 89.4906 124.091 88.6319 124.765C87.8584 125.348 86.9203 125.662 85.9566 125.662C84.9928 125.662 84.0547 125.348 83.2812 124.765L77.2899 120.535L74.8483 127.556C74.5549 128.459 73.9895 129.246 73.2315 129.807C72.4736 130.367 71.5613 130.673 70.6232 130.68V130.68ZM69.0994 125.818C69.1804 126.174 69.3691 126.496 69.6391 126.738C69.9092 126.981 70.2472 127.131 70.6059 127.17C70.846 127.17 71.079 127.087 71.2652 126.933C71.4515 126.78 71.5795 126.566 71.6275 126.327L75.5929 115.006L85.3072 121.869C85.4929 122.023 85.7254 122.107 85.9652 122.107C86.2051 122.107 86.4376 122.023 86.6233 121.869C86.8923 121.627 87.0802 121.306 87.1609 120.95C87.2416 120.595 87.211 120.223 87.0735 119.886L66.9522 56.4179L48.9781 62.2627L69.0994 125.818Z" fill="#606060"/>
<path d="M12.4585 86.8704L11.9736 90.451Z" fill="#C2D0E1"/>
<path d="M12.3026 91.2584C12.4401 91.1994 12.5602 91.1053 12.6512 90.9854C12.7422 90.8655 12.8011 90.7237 12.8221 90.5739L13.307 87.0635C13.3229 86.9483 13.3163 86.831 13.2875 86.7183C13.2586 86.6057 13.2082 86.4999 13.1391 86.407C13.0699 86.3141 12.9834 86.2359 12.8845 86.1769C12.7855 86.1179 12.6761 86.0792 12.5624 86.0631C12.4487 86.0469 12.333 86.0537 12.2218 86.0828C12.1107 86.112 12.0063 86.1631 11.9147 86.2332C11.823 86.3033 11.7459 86.391 11.6877 86.4913C11.6294 86.5916 11.5913 86.7025 11.5754 86.8178L11.0905 90.3282C11.0692 90.4819 11.0885 90.6386 11.1465 90.7824C11.2045 90.9261 11.299 91.0516 11.4205 91.1462C11.542 91.2408 11.686 91.301 11.838 91.3207C11.9899 91.3404 12.1443 91.3189 12.2853 91.2584H12.3026Z" fill="#C2D0E1"/>
<path d="M10.4498 88.415L13.9823 88.9065Z" fill="#C2D0E1"/>
<path d="M14.3286 89.7139C14.5582 89.6836 14.7666 89.5621 14.9079 89.3762C15.0491 89.1902 15.1117 88.9549 15.0819 88.7222C15.052 88.4894 14.9322 88.2782 14.7487 88.1351C14.5652 87.9919 14.3331 87.9284 14.1035 87.9587L10.6403 87.4672C10.5266 87.4511 10.4109 87.4578 10.2997 87.487C10.1886 87.5162 10.0842 87.5673 9.99257 87.6374C9.80746 87.7789 9.68542 87.9892 9.65327 88.222C9.62112 88.4547 9.68151 88.6909 9.82115 88.8785C9.96078 89.0661 10.1682 89.1898 10.3979 89.2224L13.8611 89.7139C14.0138 89.7583 14.1758 89.7583 14.3286 89.7139V89.7139Z" fill="#C2D0E1"/>
<path d="M5.35888 69.5117C5.17297 69.0758 5.11855 68.5939 5.20247 68.1267C5.28639 67.6595 5.50491 67.228 5.83046 66.8865C6.15601 66.545 6.57402 66.3089 7.03178 66.2079C7.48955 66.1069 7.96657 66.1455 8.40271 66.3189C8.83884 66.4923 9.21455 66.7927 9.48247 67.1823C9.7504 67.5718 9.89853 68.0331 9.9082 68.5078C9.91787 68.9826 9.78863 69.4496 9.5368 69.85C9.28496 70.2505 8.92179 70.5663 8.49309 70.7578C7.91416 71.0114 7.25982 71.0227 6.67271 70.7892C6.08561 70.5558 5.61335 70.0966 5.35888 69.5117V69.5117ZM6.55369 68.9851C6.63959 69.1815 6.78094 69.3478 6.95992 69.4629C7.1389 69.5781 7.3475 69.6369 7.55943 69.6321C7.77136 69.6272 7.97712 69.5589 8.15079 69.4357C8.32446 69.3125 8.45826 69.1399 8.53533 68.9397C8.61239 68.7396 8.62927 68.5208 8.58384 68.3109C8.5384 68.101 8.43269 67.9095 8.28002 67.7604C8.12736 67.6113 7.93457 67.5114 7.72596 67.4732C7.51736 67.435 7.30227 67.4603 7.10781 67.5459C6.84526 67.6617 6.63819 67.8776 6.53128 68.1468C6.42438 68.4161 6.42621 68.7172 6.53637 68.9851H6.55369Z" fill="#C2D0E1"/>
<path d="M11.1639 102.337C11.8219 102.047 12.1238 101.272 11.8382 100.605C11.5527 99.9383 10.7878 99.6323 10.1299 99.9218C9.47189 100.211 9.16998 100.986 9.45553 101.653C9.74108 102.32 10.5059 102.626 11.1639 102.337Z" fill="#C2D0E1"/>
<path d="M103.108 66.9315L100.597 69.5116Z" fill="#C2D0E1"/>
<path d="M100.407 70.3542C100.552 70.3875 100.703 70.3824 100.846 70.3394C100.988 70.2964 101.117 70.2168 101.221 70.1084L103.732 67.5283C103.822 67.449 103.894 67.3516 103.946 67.2424C103.997 67.1332 104.025 67.0144 104.029 66.8935C104.033 66.7726 104.012 66.6523 103.967 66.54C103.923 66.4277 103.856 66.326 103.771 66.2411C103.686 66.1562 103.585 66.09 103.474 66.0467C103.362 66.0033 103.243 65.9838 103.124 65.9893C103.005 65.9948 102.888 66.0252 102.781 66.0786C102.674 66.132 102.579 66.2073 102.502 66.2997L99.9913 68.8798C99.8823 68.9905 99.8045 69.1286 99.7659 69.28C99.7273 69.4314 99.7293 69.5904 99.7717 69.7408C99.8141 69.8911 99.8953 70.0272 100.007 70.1351C100.119 70.2429 100.257 70.3185 100.407 70.3542Z" fill="#C2D0E1"/>
<path d="M100.58 66.9491L103.125 69.4766Z" fill="#C2D0E1"/>
<path d="M102.918 70.3366C103.1 70.3758 103.289 70.3544 103.459 70.2757C103.628 70.197 103.767 70.0651 103.857 69.8996C103.946 69.7342 103.981 69.5439 103.955 69.357C103.929 69.1701 103.845 68.9966 103.714 68.8622L101.169 66.3172C101.091 66.2259 100.994 66.1521 100.887 66.1002C100.779 66.0483 100.662 66.0196 100.542 66.0158C100.423 66.012 100.305 66.0332 100.194 66.0782C100.083 66.1231 99.9826 66.1907 99.8988 66.2768C99.8151 66.3629 99.7498 66.4657 99.707 66.5786C99.6643 66.6915 99.645 66.8121 99.6504 66.9329C99.6559 67.0537 99.6859 67.1721 99.7386 67.2806C99.7913 67.3891 99.8655 67.4854 99.9567 67.5634L102.519 70.1962C102.638 70.2762 102.775 70.3245 102.918 70.3366V70.3366Z" fill="#C2D0E1"/>
<path d="M101.758 50.8891C101.868 50.4259 102.111 50.0063 102.457 49.6835C102.802 49.3607 103.235 49.1493 103.699 49.0761C104.164 49.0029 104.639 49.0712 105.065 49.2724C105.491 49.4735 105.849 49.7984 106.093 50.2059C106.336 50.6133 106.455 51.0849 106.434 51.5609C106.413 52.0369 106.252 52.4957 105.973 52.8792C105.694 53.2626 105.309 53.5535 104.867 53.7148C104.425 53.8761 103.945 53.9006 103.489 53.7852C102.884 53.6274 102.365 53.2361 102.041 52.6948C101.717 52.1536 101.616 51.5054 101.758 50.8891V50.8891ZM103.022 51.1875C102.976 51.3968 102.993 51.6151 103.07 51.8149C103.146 52.0147 103.279 52.1871 103.452 52.3106C103.625 52.434 103.83 52.5029 104.041 52.5086C104.253 52.5144 104.461 52.4568 104.64 52.3429C104.82 52.2291 104.962 52.0642 105.049 51.8688C105.136 51.6735 105.164 51.4565 105.13 51.2449C105.096 51.0334 105 50.8368 104.856 50.6798C104.712 50.5229 104.526 50.4125 104.32 50.3625C104.179 50.3317 104.034 50.3296 103.892 50.3562C103.75 50.3829 103.615 50.4378 103.494 50.5178C103.373 50.5978 103.269 50.7013 103.188 50.8222C103.107 50.9432 103.05 51.0793 103.022 51.2226V51.1875Z" fill="#C2D0E1"/>
<path d="M99.6765 86.0371C99.8398 85.3292 99.406 84.6211 98.7076 84.4556C98.0092 84.2901 97.3106 84.7298 97.1473 85.4377C96.984 86.1457 97.4178 86.8537 98.1162 87.0192C98.8147 87.1848 99.5132 86.7451 99.6765 86.0371Z" fill="#C2D0E1"/>
<path d="M100.684 98.5424C100.64 98.3605 100.547 98.1946 100.415 98.0637C100.283 97.9328 100.117 97.8421 99.937 97.8018C99.7566 97.7616 99.5686 97.7735 99.3946 97.8362C99.2205 97.8988 99.0673 98.0097 98.9523 98.1563L98.2077 98.9637L97.4631 99.7711C97.3468 99.8998 97.2657 100.057 97.2279 100.227C97.1901 100.398 97.1969 100.575 97.2477 100.742C97.2985 100.909 97.3914 101.059 97.5173 101.178C97.6432 101.297 97.7976 101.381 97.9653 101.421L99.0216 101.667L100.078 101.912C100.246 101.95 100.421 101.943 100.585 101.891C100.75 101.84 100.898 101.745 101.015 101.617C101.132 101.49 101.215 101.333 101.254 101.163C101.293 100.993 101.287 100.816 101.238 100.649L100.926 99.5955L100.684 98.5424Z" fill="#C2D0E1"/>
<path d="M44.2508 6.92163L47.2984 5.04358Z" fill="#C2D0E1"/>
<path d="M48.1643 5.04358C48.1651 5.19503 48.1273 5.34414 48.0545 5.4764C47.9817 5.60865 47.8763 5.71955 47.7487 5.79831L44.701 7.67636C44.507 7.77492 44.2836 7.79606 44.075 7.73558C43.8664 7.6751 43.6877 7.53742 43.5745 7.34979C43.4612 7.16216 43.4216 6.93828 43.4635 6.72246C43.5054 6.50664 43.6257 6.31463 43.8006 6.18445L46.8482 4.3064C46.9799 4.22516 47.1305 4.18102 47.2846 4.17852C47.4387 4.17602 47.5907 4.21526 47.7248 4.29219C47.8589 4.36911 47.9704 4.48094 48.0476 4.61611C48.1249 4.75129 48.1652 4.90491 48.1643 5.06113V5.04358Z" fill="#C2D0E1"/>
<path d="M44.8396 4.44681L46.6924 7.53594Z" fill="#C2D0E1"/>
<path d="M47.5582 7.53597C47.56 7.72899 47.4991 7.91726 47.3847 8.0716C47.2703 8.22595 47.1089 8.33777 46.9255 8.38974C46.7421 8.44172 46.5469 8.43095 46.3702 8.3591C46.1934 8.28725 46.0449 8.15834 45.9478 7.99232L44.095 4.90319C44.024 4.80527 43.9739 4.69349 43.9478 4.57493C43.9217 4.45637 43.9202 4.3336 43.9433 4.21441C43.9664 4.09521 44.0137 3.98218 44.0822 3.88247C44.1506 3.78276 44.2388 3.69854 44.341 3.63514C44.4432 3.57175 44.5573 3.53056 44.6761 3.51418C44.7948 3.4978 44.9157 3.50659 45.0309 3.53999C45.1461 3.5734 45.2532 3.63068 45.3455 3.70823C45.4378 3.78577 45.5131 3.88189 45.5668 3.99049L47.437 7.00941C47.5322 7.16716 47.5747 7.35181 47.5582 7.53597V7.53597Z" fill="#C2D0E1"/>
<path d="M19.4369 6.13181C19.4403 6.6116 19.3031 7.08161 19.0426 7.48224C18.7821 7.88286 18.4101 8.19605 17.9738 8.38207C17.5374 8.56809 17.0564 8.61857 16.5917 8.5271C16.1271 8.43563 15.6997 8.20634 15.3637 7.8683C15.0278 7.53027 14.7985 7.09872 14.7049 6.6284C14.6113 6.15807 14.6576 5.67016 14.8379 5.22654C15.0183 4.78293 15.3245 4.4036 15.7179 4.13666C16.1112 3.86973 16.5739 3.72722 17.0472 3.7272C17.678 3.72719 18.2832 3.97997 18.7309 4.43042C19.1785 4.88087 19.4323 5.49246 19.4369 6.13181V6.13181ZM15.9736 6.13181C15.9702 6.35122 16.0312 6.56671 16.149 6.75085C16.2668 6.93499 16.4359 7.07944 16.6349 7.16583C16.8339 7.25223 17.0538 7.27664 17.2666 7.23598C17.4793 7.19532 17.6753 7.09141 17.8296 6.93749C17.9839 6.78357 18.0895 6.58659 18.1331 6.37162C18.1766 6.15666 18.156 5.93343 18.074 5.73036C17.9919 5.52728 17.8521 5.35354 17.6724 5.23124C17.4926 5.10894 17.281 5.04362 17.0646 5.04359C16.7782 5.04356 16.5033 5.15765 16.2992 5.36124C16.0951 5.56483 15.9782 5.84159 15.9736 6.13181V6.13181Z" fill="#C2D0E1"/>
<path d="M73.7574 7.88696C74.4747 7.88696 75.0561 7.29759 75.0561 6.57057C75.0561 5.84355 74.4747 5.25418 73.7574 5.25418C73.0402 5.25418 72.4587 5.84355 72.4587 6.57057C72.4587 7.29759 73.0402 7.88696 73.7574 7.88696Z" fill="#C2D0E1"/>
<path d="M94.2077 2.95492C94.0524 2.86874 93.9228 2.74179 93.8325 2.58739C93.7422 2.43299 93.6946 2.25681 93.6946 2.07732C93.6946 1.89784 93.7422 1.72166 93.8325 1.56726C93.9228 1.41285 94.0524 1.28591 94.2077 1.19973L95.212 0.673172L96.1471 0.129064C96.2965 0.0436754 96.4652 -0.000802931 96.6366 1.09726e-05C96.8081 0.000824876 96.9764 0.0469029 97.125 0.133706C97.2735 0.220509 97.3972 0.345042 97.4838 0.495037C97.5704 0.645031 97.617 0.815313 97.619 0.989106V3.18309C97.617 3.35688 97.5704 3.52717 97.4838 3.67716C97.3972 3.82716 97.2735 3.95169 97.125 4.03849C96.9764 4.12529 96.8081 4.17137 96.6366 4.17219C96.4652 4.173 96.2965 4.12852 96.1471 4.04313L95.212 3.49902L94.2077 2.95492Z" fill="#C2D0E1"/>
<path d="M56.0084 94.5406C78.0043 94.5406 95.8354 76.4666 95.8354 54.1713C95.8354 31.8759 78.0043 13.802 56.0084 13.802C34.0126 13.802 16.1814 31.8759 16.1814 54.1713C16.1814 76.4666 34.0126 94.5406 56.0084 94.5406Z" fill="#EBF0F9"/>
<path d="M88.3722 28.4052C80.7319 22.0282 71.0229 18.7632 61.1372 19.2465C51.2515 19.7297 41.8975 23.9265 34.898 31.0191C27.8986 38.1117 23.7552 47.5918 23.2755 57.6119C22.7957 67.6321 26.0138 77.4743 32.3027 85.2206C28.0149 81.6418 24.5131 77.1935 22.0221 72.1615C19.5311 67.1294 18.1061 61.6249 17.8385 56.0014C17.571 50.378 18.4668 44.76 20.4685 39.5083C22.4703 34.2566 25.5336 29.4874 29.4617 25.507C33.3898 21.5266 38.0959 18.4231 43.2776 16.3957C48.4594 14.3684 54.0022 13.4621 59.55 13.735C65.0978 14.0079 70.528 15.4541 75.4917 17.9805C80.4554 20.507 84.8428 24.0579 88.3722 28.4052V28.4052Z" fill="white"/>
<path d="M95.8354 54.1888C95.8246 62.5375 93.2604 70.6774 88.496 77.4876C83.7315 84.2977 77.0012 89.4431 69.232 92.215C61.4627 94.987 53.0367 95.2492 45.1143 92.9655C37.1919 90.6818 30.1629 85.9646 24.9953 79.4635C32.6504 85.5835 42.2542 88.6447 51.9871 88.0672C61.72 87.4897 70.9058 83.3135 77.804 76.33C84.7023 69.3465 88.8337 60.0407 89.4156 50.176C89.9974 40.3113 86.9892 30.5729 80.9609 22.8061C85.6028 26.5721 89.3498 31.348 91.9245 36.7803C94.4992 42.2125 95.8359 48.1622 95.8354 54.1888V54.1888Z" fill="#C2D0E1"/>
<path d="M56.0084 96.2958C46.0312 96.2764 36.3938 92.6194 28.8568 85.9928C28.0949 85.3259 27.3619 84.6355 26.6577 83.9217C20.825 78.0301 16.8504 70.515 15.2384 62.33C13.6264 54.145 14.4495 45.6591 17.6034 37.9491C20.7573 30.2391 26.0997 23.6525 32.9528 19.0252C39.8059 14.3979 47.8607 11.9385 56.095 11.959C62.4976 11.9839 68.8063 13.5224 74.5193 16.4523C74.9159 16.6679 75.2141 17.0315 75.3508 17.4661C75.4875 17.9006 75.4518 18.3721 75.2515 18.7805C75.0511 19.189 74.7018 19.5023 74.2775 19.6542C73.8531 19.806 73.3871 19.7845 72.9782 19.5941C67.7102 16.9237 61.8984 15.5412 56.0084 15.5572C48.4679 15.5546 41.0961 17.8204 34.8269 22.0676C28.5577 26.3148 23.673 32.3523 20.7915 39.4155C17.91 46.4787 17.1613 54.2498 18.6402 61.7446C20.1191 69.2394 23.7591 76.1207 29.0992 81.5171C29.7457 82.1724 30.421 82.8042 31.1252 83.4127C38.6747 89.9547 48.4464 93.2494 58.3577 92.5946C68.269 91.9397 77.5361 87.3872 84.1839 79.9073C90.8318 72.4273 94.3347 62.6114 93.9461 52.5515C93.5576 42.4917 89.3082 32.9834 82.1038 26.0532C81.9378 25.8953 81.8041 25.7058 81.7103 25.4955C81.6166 25.2853 81.5646 25.0584 81.5574 24.8277C81.5427 24.362 81.7113 23.9094 82.0258 23.5696C82.3404 23.2298 82.7753 23.0305 83.2348 23.0157C83.4623 23.0084 83.6891 23.0466 83.902 23.128C84.115 23.2095 84.3101 23.3327 84.4761 23.4906C90.5407 29.2739 94.7515 36.7705 96.5627 45.0084C98.3739 53.2464 97.702 61.8459 94.634 69.6921C91.566 77.5384 86.2435 84.2696 79.3563 89.0132C72.4692 93.7567 64.3351 96.2939 56.0084 96.2958V96.2958Z" fill="#606060"/>
<path d="M63.5236 67.8091L57.8266 65.2992C57.5271 65.1666 57.2003 65.1102 56.8744 65.1346C56.5485 65.1591 56.2334 65.2638 55.9565 65.4396L50.7617 68.7745C50.4428 68.9819 50.0726 69.0937 49.6938 69.097C49.315 69.1003 48.9429 68.9949 48.6206 68.7931C48.2984 68.5912 48.039 68.301 47.8724 67.9561C47.7059 67.6112 47.639 67.2256 47.6794 66.8438L48.2681 60.5777C48.2992 60.2487 48.2508 59.917 48.1272 59.6112C48.0035 59.3054 47.8082 59.0347 47.5582 58.8226L42.727 54.7505C42.4502 54.5037 42.2458 54.1845 42.1361 53.8277C42.0264 53.471 42.0156 53.0905 42.105 52.728C42.1944 52.3655 42.3805 52.0349 42.643 51.7725C42.9054 51.5101 43.234 51.3259 43.5928 51.2402L49.6534 49.8711C49.9737 49.8007 50.2721 49.6519 50.5226 49.4378C50.7731 49.2236 50.9682 48.9506 51.0907 48.6425L53.4283 42.7977C53.5507 42.4169 53.7811 42.0812 54.0907 41.8325C54.4003 41.5838 54.7754 41.4332 55.1691 41.3995C55.5628 41.3658 55.9575 41.4504 56.3039 41.643C56.6503 41.8355 56.933 42.1272 57.1167 42.4818L60.2682 47.9053C60.4335 48.1907 60.665 48.4311 60.9426 48.6054C61.2202 48.7797 61.5355 48.8828 61.8613 48.9058L68.0604 49.3445C68.4361 49.3694 68.7973 49.5007 69.103 49.7235C69.4086 49.9464 69.6462 50.2518 69.7888 50.605C69.9314 50.9581 69.9733 51.3448 69.9095 51.7209C69.8458 52.097 69.6791 52.4474 69.4284 52.7321L65.3072 57.4535C65.0901 57.7005 64.9356 57.9974 64.8572 58.3185C64.7787 58.6397 64.7786 58.9753 64.857 59.2965L66.3635 65.4045C66.4786 65.7873 66.48 66.196 66.3673 66.5795C66.2546 66.9631 66.0329 67.3044 65.7299 67.561C65.4269 67.8176 65.056 67.9779 64.6636 68.022C64.2712 68.0662 63.8747 67.9921 63.5236 67.8091V67.8091Z" fill="#FCA82F"/>
<path d="M65.2379 57.471C65.036 57.7093 64.8917 57.992 64.8166 58.2967C64.7414 58.6014 64.7374 58.9197 64.805 59.2262L66.2942 65.3343C66.3899 65.7062 66.3798 66.098 66.2651 66.4643C66.1504 66.8306 65.9357 67.1566 65.6459 67.4044C65.3561 67.6523 65.003 67.8119 64.6274 67.8649C64.2519 67.9179 63.8692 67.862 63.5236 67.7038L57.8266 65.2816C57.5268 65.1505 57.2002 65.0949 56.8745 65.1193C56.5489 65.1438 56.234 65.2476 55.9565 65.422L50.7616 68.7569C50.4428 68.9643 50.0726 69.0762 49.6938 69.0794C49.3149 69.0827 48.9429 68.9774 48.6206 68.7755C48.2983 68.5736 48.039 68.2835 47.8724 67.9386C47.7059 67.5936 47.6389 67.208 47.6794 66.8262L47.9911 63.5264L51.7833 61.1394C52.0593 60.9621 52.3736 60.8552 52.6992 60.8277C53.0249 60.8002 53.3522 60.8529 53.6534 60.9814L59.3504 63.4913C59.696 63.6496 60.0787 63.7054 60.4542 63.6525C60.8298 63.5995 61.1829 63.4398 61.4727 63.192C61.7625 62.9441 61.9772 62.6182 62.0919 62.2518C62.2067 61.8855 62.2167 61.4937 62.121 61.1218L60.5799 55.0138C60.5123 54.7072 60.5163 54.389 60.5914 54.0843C60.6666 53.7796 60.8109 53.4968 61.0128 53.2586L64.476 49.1866L67.9392 49.4323C68.3149 49.4571 68.6761 49.5884 68.9817 49.8113C69.2873 50.0341 69.525 50.3395 69.6676 50.6927C69.8102 51.0459 69.852 51.4325 69.7883 51.8086C69.7246 52.1847 69.5579 52.5351 69.3072 52.8198L65.2379 57.471Z" fill="#FCA82F"/>
<path d="M49.6188 70.8456C49.0963 70.8454 48.5795 70.7347 48.1015 70.5207C47.6236 70.3066 47.1949 69.9939 46.8429 69.6024C46.4909 69.211 46.2234 68.7494 46.0573 68.2472C45.8912 67.745 45.8304 67.2132 45.8785 66.6858L46.4673 60.4198C46.47 60.3734 46.462 60.3271 46.444 60.2845C46.426 60.2418 46.3984 60.204 46.3634 60.174L41.6188 56.1547C41.0663 55.6978 40.6536 55.0911 40.4286 54.4054C40.2036 53.7197 40.1757 52.9832 40.3482 52.282C40.5207 51.5809 40.8864 50.9439 41.4027 50.4455C41.919 49.9471 42.5644 49.6079 43.2638 49.4674L49.3244 48.0984C49.371 48.0895 49.4145 48.0688 49.4509 48.038C49.4873 48.0073 49.5153 47.9677 49.5322 47.9228L51.8179 42.1132C52.0777 41.454 52.5147 40.882 53.0794 40.4623C53.644 40.0425 54.3136 39.7919 55.0119 39.7388C55.7102 39.6858 56.4091 39.8325 57.0292 40.1623C57.6492 40.4921 58.1655 40.9916 58.5193 41.6042L61.6708 47.0277C61.6949 47.0673 61.7278 47.1006 61.7669 47.125C61.806 47.1493 61.8502 47.1641 61.8959 47.1681L68.0951 47.6069C68.79 47.6608 69.4565 47.9095 70.0201 48.3253C70.5836 48.741 71.0219 49.3075 71.286 49.9613C71.5501 50.6151 71.6296 51.3305 71.5156 52.0275C71.4017 52.7245 71.0987 53.3756 70.6405 53.908L66.5193 58.6295C66.4981 58.67 66.487 58.7152 66.487 58.7611C66.487 58.807 66.4981 58.8522 66.5193 58.8928L67.9738 64.9306C68.148 65.6259 68.1249 66.357 67.9071 67.0396C67.6893 67.7222 67.2858 68.3286 66.743 68.7889C66.2002 69.2493 65.5401 69.5449 64.8388 69.6417C64.1375 69.7385 63.4235 69.6326 62.779 69.3361L57.1167 66.8964C57.0762 66.8763 57.0318 66.8658 56.9868 66.8658C56.9418 66.8658 56.8973 66.8763 56.8569 66.8964L51.6621 70.2313C51.0542 70.6326 50.3443 70.846 49.6188 70.8456V70.8456ZM55.3851 43.2365C55.3318 43.237 55.2799 43.2541 55.2365 43.2855C55.1932 43.3169 55.1604 43.3611 55.1426 43.412L52.805 49.2568C52.5769 49.8282 52.2149 50.3346 51.7502 50.7322C51.2856 51.1298 50.7323 51.4066 50.1383 51.5385L44.0776 52.9076C44.0261 52.9173 43.9786 52.9426 43.9415 52.9802C43.9044 53.0178 43.8795 53.0659 43.8699 53.1182C43.8512 53.1708 43.8495 53.2281 43.865 53.2817C43.8806 53.3354 43.9126 53.3826 43.9564 53.4166L48.7184 57.4711C49.1848 57.8682 49.5485 58.3747 49.7779 58.9468C50.0072 59.5188 50.0953 60.1389 50.0344 60.7533L49.4456 67.0193C49.4359 67.075 49.4441 67.1323 49.4691 67.1829C49.494 67.2335 49.5344 67.2746 49.5842 67.3001C49.6275 67.3303 49.6788 67.3465 49.7314 67.3465C49.7839 67.3465 49.8352 67.3303 49.8785 67.3001L55.0734 63.9653C55.5866 63.6408 56.1698 63.4473 56.773 63.4015C57.3762 63.3556 57.9813 63.4587 58.5366 63.702L64.2336 66.2119C64.2777 66.2399 64.3287 66.2548 64.3808 66.2548C64.4328 66.2548 64.4838 66.2399 64.5279 66.2119C64.5718 66.1779 64.6038 66.1307 64.6193 66.077C64.6349 66.0234 64.6332 65.9661 64.6145 65.9135L63.108 59.665C62.9477 59.056 62.9398 58.4161 63.0849 57.8031C63.2301 57.1902 63.5237 56.6236 63.9392 56.1547L68.0604 51.4332C68.0902 51.3893 68.1062 51.3373 68.1062 51.284C68.1062 51.2307 68.0902 51.1787 68.0604 51.1348C68.0427 51.0839 68.0099 51.0397 67.9665 51.0083C67.9231 50.9769 67.8713 50.9598 67.818 50.9593L61.6188 50.5205C61.0138 50.4757 60.4284 50.2831 59.9127 49.9591C59.3971 49.6351 58.9665 49.1894 58.6578 48.66L55.5063 43.2365C55.4664 43.2268 55.4249 43.2268 55.3851 43.2365V43.2365Z" fill="#606060"/>
<path d="M16.7009 51.2401C16.2938 51.2396 15.9 51.0938 15.5884 50.8282C15.2769 50.5627 15.0676 50.1943 14.9973 49.7879C14.9271 49.3815 15.0003 48.963 15.2042 48.6059C15.408 48.2487 15.7295 47.9758 16.1122 47.835L41.5322 38.4799C41.7476 38.3939 41.9778 38.3525 42.2093 38.3582C42.4407 38.364 42.6687 38.4167 42.8797 38.5133C43.0907 38.6098 43.2804 38.7483 43.4377 38.9206C43.595 39.0928 43.7166 39.2952 43.7953 39.5159C43.8741 39.7366 43.9084 39.971 43.8962 40.2054C43.884 40.4397 43.8256 40.6692 43.7243 40.8802C43.6231 41.0913 43.4812 41.2796 43.3069 41.4341C43.1326 41.5886 42.9295 41.7061 42.7097 41.7796L17.2897 51.1348C17.1009 51.2042 16.9017 51.2399 16.7009 51.2401V51.2401Z" fill="#606060"/>
<path d="M19.6446 41.885C19.2427 41.8819 18.8544 41.7372 18.5461 41.4757C18.2379 41.2142 18.0291 40.8522 17.9554 40.4517C17.8817 40.0512 17.9477 39.6371 18.1422 39.2806C18.3367 38.924 18.6475 38.6472 19.0213 38.4974L32.8741 33.2319C33.0898 33.1354 33.3227 33.0847 33.5584 33.0826C33.7941 33.0806 34.0278 33.1274 34.2451 33.2202C34.4623 33.3129 34.6586 33.4496 34.8219 33.622C34.9852 33.7943 35.1121 33.9987 35.1947 34.2224C35.2774 34.4462 35.3141 34.6848 35.3025 34.9234C35.291 35.1621 35.2316 35.3959 35.1278 35.6104C35.024 35.825 34.8781 36.0158 34.699 36.1712C34.5199 36.3266 34.3114 36.4433 34.0863 36.5141L20.2334 41.7796C20.0447 41.8491 19.8454 41.8847 19.6446 41.885V41.885Z" fill="#606060"/>
</svg>
