<svg width="115" height="123" viewBox="0 0 115 123" fill="none" xmlns="http://www.w3.org/2000/svg">
<path opacity="0.25" d="M57.7889 122.802C82.5662 122.802 102.652 119.427 102.652 115.263C102.652 111.099 82.5662 107.724 57.7889 107.724C33.0115 107.724 12.9255 111.099 12.9255 115.263C12.9255 119.427 33.0115 122.802 57.7889 122.802Z" fill="#DEE6F1"/>
<path d="M58.1278 115.227C89.4133 115.227 114.775 89.6563 114.775 58.1134C114.775 26.5705 89.4133 1 58.1278 1C26.8423 1 1.48039 26.5705 1.48039 58.1134C1.48039 89.6563 26.8423 115.227 58.1278 115.227Z" fill="white"/>
<path d="M66.7376 106.088C56.3215 106.088 46.107 103.193 37.2168 97.7206C28.3266 92.2483 21.1048 84.4108 16.3453 75.0695C11.5859 65.7282 9.47286 55.2447 10.2386 44.7714C11.0044 34.298 14.6192 24.2402 20.6859 15.7036C14.7315 21.0303 9.95786 27.5629 6.67652 34.8752C3.39517 42.1876 1.67983 50.1152 1.64239 58.141C1.60495 66.1669 3.24627 74.1104 6.45925 81.4535C9.67224 88.7967 14.3847 95.3743 20.2891 100.757C26.1936 106.14 33.1574 110.208 40.7262 112.694C48.295 115.18 56.2987 116.03 64.2151 115.187C72.1315 114.345 79.7827 111.829 86.6696 107.803C93.5565 103.778 99.5242 98.3341 104.184 91.8266C93.8495 101.034 80.5287 106.107 66.7376 106.088V106.088Z" fill="#DEE6F1"/>
<path d="M87.1275 9.67256C88.9586 10.8103 90.724 12.052 92.4154 13.3917" stroke="#374449" stroke-width="1.793" stroke-miterlimit="10"/>
<path d="M109.38 33.0486C94.7004 37.3266 77.2775 39.8275 58.5824 39.8275C39.8874 39.8275 22.4605 37.3266 7.78119 33.0486C8.91775 30.7296 10.2102 28.4916 11.6494 26.3502C25.4833 29.9688 41.4985 32.0435 58.5785 32.0435C75.6584 32.0435 91.6776 29.9728 105.504 26.3502C106.947 28.4903 108.242 30.7284 109.38 33.0486V33.0486Z" fill="#6066D0"/>
<path d="M14.421 27.0458C13.4687 29.3417 12.6694 31.699 12.0283 34.1021C10.6046 33.7442 9.17694 33.3944 7.80911 32.9924C8.94223 30.6957 10.2265 28.478 11.6534 26.3542C12.5653 26.5874 13.4878 26.818 14.421 27.0458V27.0458Z" fill="#8977AF"/>
<path d="M108.02 32.5903C93.3406 36.8723 75.9176 39.353 57.2226 39.353C38.5275 39.353 21.1006 36.8723 6.42532 32.5903C7.56188 30.2713 8.8543 28.0332 10.2935 25.8919C24.1274 29.5105 40.1426 31.5851 57.2226 31.5851C74.3026 31.5851 90.3218 29.5145 104.148 25.8919C105.59 28.0321 106.884 30.2702 108.02 32.5903V32.5903Z" stroke="#17343F" stroke-width="0.8965" stroke-miterlimit="10"/>
<path d="M101.392 22.2974C109.997 32.9968 114.466 46.4774 113.971 60.2434C113.475 74.0093 108.05 87.1281 98.6984 97.1709C89.347 107.214 76.7031 113.5 63.1079 114.866C49.5126 116.232 35.8869 112.586 24.7533 104.602C13.6198 96.6173 5.73273 84.8363 2.55231 71.4397C-0.628102 58.0431 1.1136 43.9384 7.45495 31.737C13.7963 19.5357 24.3078 10.0641 37.0431 5.07598C49.7785 0.0878702 63.8752 -0.0789141 76.7232 4.60651" stroke="#374449" stroke-width="1.793" stroke-miterlimit="10"/>
<path d="M38.6272 62.126C38.6269 63.7126 38.0065 65.2352 36.9005 66.3638C36.3401 65.7865 35.671 65.3278 34.9325 65.0146C34.1939 64.7015 33.4008 64.5401 32.5996 64.5401C31.7984 64.5401 31.0052 64.7015 30.2667 65.0146C29.5282 65.3278 28.8591 65.7865 28.2987 66.3638C27.6057 65.6521 27.097 64.7793 26.8176 63.8226C26.5381 62.8658 26.4964 61.8544 26.6962 60.8776C26.8959 59.9007 27.331 58.9884 27.963 58.2212C28.5951 57.4539 29.4046 56.8552 30.3203 56.4778C31.236 56.1004 32.2298 55.9561 33.2139 56.0573C34.1981 56.1586 35.1424 56.5025 35.9636 57.0586C36.7848 57.6147 37.4576 58.366 37.9229 59.2462C38.3881 60.1265 38.6313 61.1086 38.6312 62.1059L38.6272 62.126Z" fill="#374449"/>
<path d="M87.6778 62.126C87.6775 63.7126 87.0571 65.2352 85.9511 66.3638C85.3907 65.7865 84.7216 65.3278 83.9831 65.0146C83.2445 64.7015 82.4514 64.5401 81.6502 64.5401C80.849 64.5401 80.0558 64.7015 79.3173 65.0146C78.5787 65.3278 77.9096 65.7865 77.3493 66.3638C76.6563 65.6521 76.1476 64.7793 75.8681 63.8226C75.5887 62.8658 75.547 61.8544 75.7467 60.8776C75.9465 59.9007 76.3816 58.9884 77.0136 58.2212C77.6456 57.4539 78.4552 56.8552 79.3709 56.4778C80.2866 56.1004 81.2804 55.9561 82.2645 56.0573C83.2486 56.1586 84.1929 56.5025 85.0141 57.0586C85.8353 57.6147 86.5082 58.366 86.9734 59.2462C87.4387 60.1265 87.6819 61.1086 87.6818 62.1059L87.6778 62.126Z" fill="#374449"/>
<path d="M49.215 88.8191C50.6102 87.0428 52.3814 85.6032 54.3992 84.6055C59.38 82.1931 63.7427 84.903 66.9968 88.8191C68.4843 90.6043 71.0086 88.015 69.5331 86.262C65.6968 81.6423 60.1138 78.5343 54.12 80.8381C51.2036 81.9519 48.631 83.8231 46.6628 86.262C45.2471 88.0713 47.7674 90.6485 49.199 88.8191H49.215Z" fill="#374449"/>
<path d="M82.4258 45.778C83.5943 49.3966 84.9541 53.0152 88.1564 55.2949C89.5726 56.2727 91.1853 56.9237 92.8795 57.2017C94.5737 57.4797 96.3078 57.3778 97.9585 56.9032C100.184 56.284 99.2386 52.7941 97.0054 53.4133C95.8074 53.7667 94.5442 53.8345 93.3158 53.6112C92.0873 53.3879 90.9272 52.8797 89.927 52.1267C87.6379 50.3696 86.7367 47.4547 85.8873 44.8131C85.1734 42.6098 81.708 43.5506 82.4258 45.774V45.778Z" fill="#374449"/>
<path d="M28.3585 44.8169C27.5211 47.4666 26.6078 50.3695 24.3308 52.1305C23.3304 52.8832 22.1703 53.3913 20.9419 53.6146C19.7135 53.8378 18.4504 53.7703 17.2523 53.4171C15.0231 52.7979 14.0621 56.2879 16.2992 56.9071C17.9499 57.3819 19.6841 57.484 21.3784 57.206C23.0726 56.928 24.6852 56.2768 26.1014 55.2988C29.2917 53.0271 30.6635 49.3965 31.8319 45.7819C32.5497 43.5625 29.0843 42.6136 28.3705 44.821L28.3585 44.8169Z" fill="#374449"/>
<path d="M32.3464 70.9634C32.5856 73.1748 31.9715 75.35 30.0653 75.0363C25.3876 74.2644 30.1929 66.7779 30.3046 66.8342C31.3933 67.3649 32.151 69.1783 32.3464 70.9634Z" fill="#FCA82F"/>
</svg>
